<?xml version="1.0" encoding="UTF-8" standalone="no"?>
<svg width="40px" height="12px" viewBox="0 0 40 12" version="1.1" xmlns="http://www.w3.org/2000/svg" xmlns:xlink="http://www.w3.org/1999/xlink" xmlns:sketch="http://www.bohemiancoding.com/sketch/ns">
    <!-- Generator: Sketch 3.3.3 (12081) - http://www.bohemiancoding.com/sketch -->
    <title>Path 2</title>
    <desc>Created with Sketch.</desc>
    <defs></defs>
    <g id="Page-1" stroke="none" stroke-width="1" fill="none" fill-rule="evenodd" sketch:type="MSPage">
        <g id="Artboard-1" sketch:type="MSArtboardGroup" fill="#000000">
            <path d="M40,4 L40,8 L6,8 L6,12 L5,12 L5,11 L4,11 L4,10 L3,10 L3,9 L2,9 L2,8 L1,8 L1,7 L0,7 L0,5 L1,5 L1,4 L2,4 L2,3 L3,3 L3,2 L4,2 L4,1 L5,1 L5,0 L6,0 L6,4 L40,4 Z" id="Path-2" sketch:type="MSShapeGroup"></path>
        </g>
    </g>
</svg>