<?xml version="1.0" encoding="UTF-8" standalone="no"?>
<svg width="40px" height="12px" viewBox="0 0 40 12" version="1.1" xmlns="http://www.w3.org/2000/svg" xmlns:xlink="http://www.w3.org/1999/xlink" xmlns:sketch="http://www.bohemiancoding.com/sketch/ns">
    <!-- Generator: Sketch 3.3.3 (12081) - http://www.bohemiancoding.com/sketch -->
    <title>Shape</title>
    <desc>Created with Sketch.</desc>
    <defs></defs>
    <g id="Page-1" stroke="none" stroke-width="1" fill="none" fill-rule="evenodd" sketch:type="MSPage">
        <path d="M0,4 L34,4 L34,0 L35,0 L35,1 L36,1 L36,2 L37,2 L37,3 L38,3 L38,4 L39,4 L39,5 L40,5 L40,7 L39,7 L39,8 L38,8 L38,9 L37,9 L37,10 L36,10 L36,11 L35,11 L35,12 L34,12 L34,8 L0,8 L0,4 L0,4 Z" id="Shape" fill="#FFFFFF" sketch:type="MSShapeGroup"></path>
    </g>
</svg>