<?xml version="1.0" encoding="UTF-8" standalone="no"?>
<svg width="25px" height="8px" viewBox="0 0 25 8" version="1.1" xmlns="http://www.w3.org/2000/svg" xmlns:xlink="http://www.w3.org/1999/xlink" xmlns:sketch="http://www.bohemiancoding.com/sketch/ns">
    <!-- Generator: Sketch 3.3.3 (12081) - http://www.bohemiancoding.com/sketch -->
    <title>back</title>
    <desc>Created with Sketch.</desc>
    <defs></defs>
    <g id="Page-1" stroke="none" stroke-width="1" fill="none" fill-rule="evenodd" sketch:type="MSPage">
        <g id="back" sketch:type="MSArtboardGroup" fill="#000000">
            <path d="M0,3 L25,3 L25,5 L0,5 L0,3 Z M1,2 L4,2 L4,3 L1,3 L1,2 Z M2,1 L4,1 L4,2 L2,2 L2,1 Z M3,0 L4,0 L4,1 L3,1 L3,0 Z M1,5 L4,5 L4,6 L1,6 L1,5 Z M2,6 L4,6 L4,7 L2,7 L2,6 Z M3,7 L4,7 L4,8 L3,8 L3,7 Z" id="Rectangle-1" sketch:type="MSShapeGroup"></path>
        </g>
    </g>
</svg>