<?xml version="1.0" encoding="UTF-8" standalone="no"?>
<svg width="20px" height="20px" viewBox="0 0 20 20" version="1.1" xmlns="http://www.w3.org/2000/svg" xmlns:xlink="http://www.w3.org/1999/xlink" xmlns:sketch="http://www.bohemiancoding.com/sketch/ns">
    <!-- Generator: Sketch 3.3.3 (12081) - http://www.bohemiancoding.com/sketch -->
    <title>Path 1</title>
    <desc>Created with Sketch.</desc>
    <defs></defs>
    <g id="Page-1" stroke="none" stroke-width="1" fill="none" fill-rule="evenodd" sketch:type="MSPage">
        <g id="Artboard-1" sketch:type="MSArtboardGroup" fill="#000000">
            <path d="M7,9 L7,11 L1,17 L1,15 L0,15 L0,20 L5,20 L5,19 L3,19 L9,13 L11,13 L17,19 L15,19 L15,20 L20,20 L20,15 L19,15 L19,17 L13,11 L13,9 L19,3 L19,5 L20,5 L20,0 L15,0 L15,1 L17,1 L11,7 L9,7 L3,1 L5,1 L5,0 L0,0 L0,5 L1,5 L1,3 L7,9 Z" id="Path-1" sketch:type="MSShapeGroup"></path>
        </g>
    </g>
</svg>