<?xml version="1.0" encoding="UTF-8" standalone="no"?>
<svg width="18px" height="20px" viewBox="0 0 18 20" version="1.1" xmlns="http://www.w3.org/2000/svg" xmlns:xlink="http://www.w3.org/1999/xlink" xmlns:sketch="http://www.bohemiancoding.com/sketch/ns">
    <!-- Generator: Sketch 3.3.3 (12081) - http://www.bohemiancoding.com/sketch -->
    <title>Rectangle 1</title>
    <desc>Created with Sketch.</desc>
    <defs></defs>
    <g id="Page-1" stroke="none" stroke-width="1" fill="none" fill-rule="evenodd" sketch:type="MSPage">
        <g id="Artboard-1" sketch:type="MSArtboardGroup" fill="#000000">
            <path d="M6,0 L18,0 L18,2 L6,2 L6,0 Z M16,2 L18,2 L18,15 L16,15 L16,2 Z M12,13 L16,13 L16,15 L12,15 L12,13 Z M6,2 L8,2 L8,5 L6,5 L6,2 Z M0,5 L12,5 L12,7 L0,7 L0,5 Z M10,7 L12,7 L12,20 L10,20 L10,7 Z M0,18 L10,18 L10,20 L0,20 L0,18 Z M0,7 L2,7 L2,18 L0,18 L0,7 Z" id="Rectangle-1" sketch:type="MSShapeGroup"></path>
        </g>
    </g>
</svg>