<?xml version="1.0" standalone="no"?>
<!DOCTYPE svg PUBLIC "-//W3C//DTD SVG 1.1//EN" "http://www.w3.org/Graphics/SVG/1.1/DTD/svg11.dtd" >
<svg xmlns="http://www.w3.org/2000/svg">
<metadata></metadata>
<defs>
<font id="patronmedium" horiz-adv-x="512" >
<font-face units-per-em="2048" ascent="1669" descent="-379" />
<missing-glyph horiz-adv-x="501" />
<glyph unicode="&#xfb01;" horiz-adv-x="1304" d="M10 922v225h226v221q0 141 77.5 213t192.5 72q133 0 231 -72l-49 -231h-12q-51 55 -119 55q-76 0 -76 -86v-172h248v-225h-248v-922h-245v922h-226zM842 1435.5q0 73.5 44 117.5t121.5 44t120.5 -44t43 -117.5t-43 -117.5t-120.5 -44t-121.5 44t-44 117.5zM885 0v1147 h245v-1147h-245z" />
<glyph unicode="&#xfb02;" horiz-adv-x="1261" d="M10 922v225h226v221q0 141 77.5 213t192.5 72q133 0 231 -72l-49 -231h-12q-51 55 -119 55q-76 0 -76 -86v-172h248v-225h-248v-922h-245v922h-226zM883 0v1520h245v-1520h-245z" />
<glyph horiz-adv-x="0" />
<glyph unicode="&#xd;" />
<glyph unicode=" "  horiz-adv-x="501" />
<glyph unicode="&#x09;" horiz-adv-x="501" />
<glyph unicode="&#xa0;" horiz-adv-x="501" />
<glyph unicode="!" horiz-adv-x="659" d="M154 164q0 78 47 126t131 48q82 0 128 -48t46 -126q0 -80 -46 -128t-128 -48q-84 0 -131 48t-47 128zM182 1051v383h303v-383l-41 -584h-221z" />
<glyph unicode="&#x22;" horiz-adv-x="743" d="M92 1434h223l-41 -459h-141zM428 1434h223l-41 -459h-141z" />
<glyph unicode="#" horiz-adv-x="1355" d="M92 467v199h254l35 266h-227v198h252l38 304h203l-39 -304h219l41 304h203l-41 -304h234v-198h-258l-35 -266h231v-199h-258l-41 -328h-203l41 328h-219l-41 -328h-202l40 328h-227zM549 666h219l35 266h-219z" />
<glyph unicode="$" horiz-adv-x="1349" d="M92 252l111 237h12q57 -84 151.5 -158.5t206.5 -105.5v426q-119 41 -189.5 73t-134 78t-90 107.5t-26.5 145.5q0 168 121 279.5t319 121.5v207h195v-215q141 -29 245.5 -101.5t155.5 -152.5l-127 -213h-12q-90 168 -262 229v-376q127 -47 201.5 -82t142.5 -86.5 t96.5 -116t28.5 -152.5q0 -188 -129 -297.5t-340 -122.5v-223h-195v230q-168 27 -295.5 107.5t-185.5 160.5zM379 1065q0 -61 44 -96t150 -74v336q-96 -8 -145 -53t-49 -113zM768 209q225 20 225 180q0 68 -51 111t-174 88v-379z" />
<glyph unicode="%" horiz-adv-x="1910" />
<glyph unicode="&#x26;" horiz-adv-x="1275" d="M113 334q0 133 70.5 234.5t201.5 205.5q-172 193 -172 359q0 137 104.5 231t272.5 94t271.5 -90t103.5 -221q0 -61 -20.5 -116.5t-70 -114t-76 -84t-93.5 -87.5l213 -264l112 154h10l140 -182l-111 -150l176 -215l-170 -160l-168 201q-162 -154 -387 -154 q-168 0 -287.5 92.5t-119.5 266.5zM365 354q0 -74 54 -110.5t132 -36.5q133 0 215 98l-246 303q-156 -129 -155 -254zM455 1118q0 -76 110 -211q160 135 160 221q0 49 -36 84t-97 35q-63 0 -100 -38t-37 -91z" />
<glyph unicode="'" horiz-adv-x="407" d="M92 1434h223l-41 -459h-141z" />
<glyph unicode="(" horiz-adv-x="673" d="M133 606q0 154 27.5 307.5t67.5 264t80 198.5t69 131l26 45h220q-10 -16 -26.5 -45.5t-59.5 -128t-77 -202t-60.5 -260t-26.5 -310.5q0 -164 23.5 -317.5t57 -257t67.5 -183t57 -118.5l24 -37h-233q-10 12 -25.5 36.5t-56.5 110.5t-72 184.5t-56.5 256t-25.5 325.5z" />
<glyph unicode=")" horiz-adv-x="673" d="M51 1552h219q10 -16 28.5 -45.5t66 -128t82 -203t64.5 -260t30 -309.5q0 -168 -24.5 -324.5t-58.5 -259t-69 -180.5t-59 -112l-25 -37h-233q10 14 25.5 39.5t54 113.5t69.5 186.5t55.5 254t24.5 319.5q0 154 -25.5 308.5t-62.5 264t-74 197.5t-61 131z" />
<glyph unicode="*" horiz-adv-x="937" d="M92 1116l101 217l213 -153l-54 254h236l-53 -254l210 153l101 -217l-289 -61l234 -187l-179 -155l-143 254l-143 -254l-179 155l234 187z" />
<glyph unicode="+" horiz-adv-x="1208" d="M92 616v226h400v399h225v-399h399v-226h-399v-460h-225v460h-400z" />
<glyph unicode="," horiz-adv-x="559" d="M92 166q0 80 50 129t132 49q88 0 140.5 -56.5t52.5 -148.5q0 -94 -56.5 -193.5t-129.5 -170.5h-111v12q82 106 92 213q-74 0 -122 47t-48 119z" />
<glyph unicode="-" horiz-adv-x="788" d="M92 532v226h604v-226h-604z" />
<glyph unicode="." horiz-adv-x="544" d="M92 168q0 80 48 129t134 49q84 0 131.5 -49t47.5 -129q0 -82 -47.5 -131t-131.5 -49q-86 0 -134 49t-48 131z" />
<glyph unicode="/" horiz-adv-x="1036" d="M10 -139l824 1804l192 -88l-823 -1804z" />
<glyph unicode="0" horiz-adv-x="1302" d="M92 698q0 326 147.5 543t411.5 217t411.5 -217t147.5 -543q0 -102 -14 -197t-54 -192.5t-100.5 -169t-161 -118t-229.5 -46.5t-229 46.5t-160.5 118t-100.5 169t-54.5 192.5t-14.5 197zM344 702q0 -90 14.5 -170.5t47 -155.5t96 -119t149.5 -44t149.5 44t97.5 119 t48.5 155.5t14.5 170.5q0 217 -79 372t-231 155q-150 0 -228.5 -154.5t-78.5 -372.5z" />
<glyph unicode="1" horiz-adv-x="860" d="M-20 983l430 451h256v-1434h-250v1098h-6l-256 -293z" />
<glyph unicode="2" horiz-adv-x="1099" d="M51 1079q45 147 175 263t339 116q213 0 345 -119.5t132 -314.5q0 -119 -74.5 -244t-149.5 -199.5t-243 -222.5q-39 -35 -57 -51l-80 -71h611v-236h-955v225l191 174q39 35 140 124t146 133t108.5 115t90.5 129t27 116q0 96 -59.5 156.5t-168.5 60.5q-244 0 -344 -338h-12 z" />
<glyph unicode="3" horiz-adv-x="1208" d="M47 297l150 188h12q51 -117 148.5 -199.5t230.5 -82.5q127 0 205.5 72.5t78.5 189.5q0 129 -75.5 199.5t-214.5 70.5q-111 0 -189 -41l-119 176l463 338h-563v226h877v-209l-435 -316l2 -4q20 6 58 6q180 0 310 -123.5t130 -330.5q0 -229 -148.5 -356.5t-375.5 -127.5 q-199 0 -343.5 100.5t-201.5 223.5z" />
<glyph unicode="4" horiz-adv-x="1286" d="M72 289v217l569 928h393v-916h140v-229h-134v-289h-258v289h-710zM336 518h446v715h-6z" />
<glyph unicode="5" horiz-adv-x="1228" d="M82 293l141 192h13q53 -117 150 -198.5t238.5 -81.5t217.5 77.5t76 198.5q0 117 -77 189.5t-216 72.5q-152 0 -258 -90l-222 95v686h865v-226h-633v-340l2 -2q121 76 280 76q217 0 359.5 -124t142.5 -345q0 -229 -151.5 -363.5t-395.5 -134.5q-195 0 -341 101.5 t-191 216.5z" />
<glyph unicode="6" horiz-adv-x="1277" d="M92 684q0 352 170 563t436 211q150 0 264.5 -66.5t159.5 -148.5l-118 -207h-13q-47 86 -125 141.5t-178 55.5q-162 0 -248 -134t-86 -327l4 -2q53 70 147.5 114t209.5 44q203 0 342 -129t139 -338q0 -211 -140.5 -348.5t-373.5 -137.5q-264 0 -427 183.5t-163 525.5z M403 469q0 -115 73 -189.5t204 -74.5q125 0 197.5 72.5t72.5 185.5q0 115 -73.5 191.5t-194.5 76.5q-127 0 -203 -78t-76 -184z" />
<glyph unicode="7" horiz-adv-x="1044" d="M51 1188v246h942v-242l-635 -1192h-288l647 1188h-666z" />
<glyph unicode="8" horiz-adv-x="1193" d="M113 367q0 131 75.5 227t196.5 135v2q-111 39 -176.5 129t-65.5 203q0 162 128 278.5t329 116.5q199 0 325 -115.5t126 -279.5q0 -115 -63.5 -205t-172.5 -125v-4q121 -39 193.5 -134t72.5 -230q0 -190 -139 -290t-340 -100q-205 0 -347 102.5t-142 289.5zM369 406 q0 -88 60 -140.5t171 -52.5q109 0 170 52t61 140.5t-62 149.5t-171 61t-169 -60t-60 -150zM389 1040q0 -80 56.5 -135t152.5 -55t151.5 54t55.5 136t-56.5 139.5t-150.5 57.5t-151.5 -57.5t-57.5 -139.5z" />
<glyph unicode="9" horiz-adv-x="1232" d="M82 961q0 213 145.5 355t360.5 142q109 0 204 -42t175 -128t127 -238.5t47 -355.5q0 -362 -143.5 -540.5t-383.5 -178.5q-285 0 -448 179l100 219h13q137 -168 321 -168q139 0 214 107.5t79 310.5h-4q-37 -61 -126 -103.5t-202 -42.5q-213 0 -346 139.5t-133 344.5z M328 963q0 -113 68.5 -192t195.5 -79q125 0 189.5 75t64.5 185q0 115 -67.5 198t-194.5 83q-125 0 -190.5 -80t-65.5 -190z" />
<glyph unicode=":" horiz-adv-x="565" d="M102 168q0 80 48.5 129t134.5 49q84 0 131 -49t47 -129q0 -82 -47 -131t-131 -49q-86 0 -134.5 49t-48.5 131zM102 897q0 80 48.5 129t134.5 49q84 0 131 -49t47 -129q0 -82 -47 -131t-131 -49q-86 0 -134.5 49t-48.5 131z" />
<glyph unicode=";" horiz-adv-x="575" d="M113 897q0 80 48 129t134 49q84 0 131 -49t47 -129q0 -82 -47 -131t-131 -49q-86 0 -134 49t-48 131zM121 158q0 80 48 128t130 48q86 0 137 -55.5t51 -147.5t-55 -188.5t-127 -165.5h-108v12q80 104 90 207q-72 0 -119 46t-47 116z" />
<glyph unicode="&#x3c;" horiz-adv-x="1220" d="M92 612v236l1036 455v-234l-780 -340l780 -340v-233z" />
<glyph unicode="=" horiz-adv-x="1220" d="M92 408v223h1036v-223h-1036zM92 825v226h1036v-226h-1036z" />
<glyph unicode="&#x3e;" horiz-adv-x="1220" d="M92 156v233l780 340l-780 340v234l1036 -455v-236z" />
<glyph unicode="?" horiz-adv-x="1069" d="M137 1262q63 80 179 138t251 58q174 0 276.5 -87t102.5 -218q0 -115 -57.5 -174t-216.5 -131q-147 -66 -190.5 -94.5t-43.5 -63.5q0 -66 84 -65q53 0 114.5 31.5t100.5 80.5h13l106 -176q-57 -61 -152.5 -103t-209.5 -42q-129 0 -210 65.5t-81 190.5q0 115 71.5 181.5 t212.5 129.5q150 68 188 93.5t38 68.5q0 41 -37 66.5t-107 25.5q-172 0 -305 -182h-12zM379 155.5q0 75.5 44 121t124 45.5t124 -45.5t44 -121t-45 -121.5t-123 -46q-80 0 -124 46t-44 121.5z" />
<glyph unicode="@" horiz-adv-x="1562" d="M92 565q0 322 201 536t514 214q297 0 480 -195.5t183 -490.5q0 -231 -85 -332.5t-211 -101.5q-158 0 -205 118h-4q-20 -51 -75.5 -85.5t-139.5 -34.5q-131 0 -216 102t-85 264t87 272.5t214 110.5t174 -92h4l14 76h133v-439q0 -68 18.5 -95t65.5 -27q131 0 131 258 q0 219 -128 371.5t-357 152.5q-240 0 -386.5 -166t-146.5 -416q0 -244 140.5 -401.5t380.5 -157.5q78 0 153.5 20.5t114.5 43.5l37 20h12l47 -172q-16 -10 -45 -24.5t-124 -38t-195 -23.5q-334 0 -517.5 203t-183.5 530zM633 567q0 -82 33.5 -141t99.5 -59q137 0 137 202 q0 88 -34 146.5t-97 58.5q-72 0 -105.5 -61.5t-33.5 -145.5z" />
<glyph unicode="A" horiz-adv-x="1411" d="M20 0l504 1434h365l502 -1434h-275l-119 352h-583l-119 -352h-275zM487 578h437l-213 630h-11z" />
<glyph unicode="B" horiz-adv-x="1316" d="M154 0v1434h647q211 0 322.5 -96.5t111.5 -272.5q0 -233 -225 -330v-4q225 -86 225 -348q0 -74 -23.5 -138.5t-76 -121.5t-150.5 -90t-235 -33h-596zM416 242h346q217 0 217 190q0 182 -205 182h-358v-372zM416 842h334q102 0 160.5 48t58.5 136q0 168 -197 168h-356 v-352z" />
<glyph unicode="C" horiz-adv-x="1349" d="M82 713q0 305 184 525t473 220q201 0 337 -100.5t200 -229.5l-182 -188h-13q-117 279 -342 279q-178 0 -286.5 -146.5t-108.5 -355.5q0 -215 101.5 -355.5t287.5 -140.5q137 0 233.5 92.5t135.5 251.5h12l215 -170q-61 -186 -219 -303t-379 -117q-162 0 -289 60.5 t-203.5 165t-116.5 234.5t-40 278z" />
<glyph unicode="D" horiz-adv-x="1419" d="M164 0v1434h512q662 0 662 -716q0 -718 -672 -718h-502zM426 242h270q190 0 285.5 123.5t95.5 355.5q0 473 -377 473h-274v-952z" />
<glyph unicode="E" horiz-adv-x="1179" d="M154 0v1434h913v-240h-651v-360h651v-226h-651v-366h651v-242h-913z" />
<glyph unicode="F" horiz-adv-x="1181" d="M154 0v1434h929v-240h-667v-387h659v-236h-659v-571h-262z" />
<glyph unicode="G" horiz-adv-x="1390" d="M82 723q0 297 185 516t474 219q201 0 337 -99t198 -231l-180 -188h-13q-121 283 -342 283q-178 0 -287.5 -147.5t-109.5 -352.5q0 -221 103.5 -361.5t293.5 -140.5q104 0 192.5 44t123.5 108v135h-248v221h500v-729h-162l-57 147h-5q-45 -72 -141 -122t-231 -50 q-297 0 -464 215.5t-167 532.5z" />
<glyph unicode="H" horiz-adv-x="1406" d="M154 0v1434h262v-590h577v590h260v-1434h-260v614h-577v-614h-262z" />
<glyph unicode="I" horiz-adv-x="569" d="M154 0v1434h262v-1434h-262z" />
<glyph unicode="J" horiz-adv-x="1024" d="M10 213l142 213h12q121 -199 260 -199q203 0 203 236v971h264v-1026q0 -197 -120 -315t-331 -118q-158 0 -265 70t-165 168z" />
<glyph unicode="K" horiz-adv-x="1347" d="M154 0v1434h262v-660h4l553 660h325l-600 -693l639 -741h-348l-569 680h-4v-680h-262z" />
<glyph unicode="L" horiz-adv-x="993" d="M154 0v1434h262v-1194h547v-240h-809z" />
<glyph unicode="M" horiz-adv-x="1863" d="M154 0v1434h432l342 -1080h6l342 1080h434v-1434h-256v1196h-4l-389 -1196h-258l-389 1196h-4v-1196h-256z" />
<glyph unicode="N" horiz-adv-x="1513" d="M154 0v1434h401l539 -1190h4v1190h262v-1434h-402l-538 1192h-4v-1192h-262z" />
<glyph unicode="O" horiz-adv-x="1480" d="M82 713q0 309 186.5 527t473 218t472 -219t185.5 -526q0 -315 -170 -526.5t-488 -211.5q-215 0 -367.5 103.5t-222 266.5t-69.5 368zM344 717q0 -219 104.5 -357.5t293 -138.5t293 137.5t104.5 358.5q0 211 -106.5 358.5t-291 147.5t-291 -147.5t-106.5 -358.5z" />
<glyph unicode="P" horiz-adv-x="1245" d="M154 0v1434h551q223 0 356 -121t133 -340q0 -221 -144.5 -343t-371.5 -122h-262v-508h-262zM416 750h227q143 0 217 59t74 168q0 104 -58.5 160.5t-197.5 56.5h-262v-444z" />
<glyph unicode="Q" horiz-adv-x="1536" d="M82 713q0 309 186.5 527t473 218t472 -219t185.5 -526q0 -244 -119 -434l215 -267v-12h-276l-89 109q-166 -133 -389 -134q-215 0 -367.5 103.5t-222 266.5t-69.5 368zM344 717q0 -219 104.5 -357.5t292.5 -138.5q139 0 232 80l-311 383l174 141l268 -331q35 100 35 223 q0 211 -106.5 358.5t-291 147.5t-291 -147.5t-106.5 -358.5z" />
<glyph unicode="R" horiz-adv-x="1339" d="M154 0v1434h594q219 0 351 -116t132 -331q0 -190 -115 -294.5t-291 -127.5l412 -565h-317l-383 559h-121v-559h-262zM416 791h278q276 0 277 204q0 100 -59.5 149.5t-190.5 49.5h-305v-403z" />
<glyph unicode="S" horiz-adv-x="1236" d="M51 254l123 248h12q72 -115 193 -198t270 -83q258 0 258 170q0 63 -50 107.5t-101 62t-187 53.5q-6 2 -11 3t-9 4q-229 61 -344 155t-115 275q0 172 130 289.5t341 117.5q190 0 331.5 -83t205.5 -187l-129 -225h-13q-59 109 -162.5 183.5t-226.5 74.5 q-102 0 -159.5 -48.5t-57.5 -119.5q0 -80 71 -123t253 -92q117 -31 191.5 -59.5t150.5 -78t112.5 -125t36.5 -178.5q0 -203 -140 -312.5t-374 -109.5q-211 0 -369.5 88.5t-230.5 190.5z" />
<glyph unicode="T" horiz-adv-x="1122" d="M31 1194v240h1061v-240h-402v-1194h-262v1194h-397z" />
<glyph unicode="U" horiz-adv-x="1388" d="M133 528v906h262v-891q0 -152 75 -238t228 -86q152 0 224.5 86t72.5 238v891h260v-906q0 -248 -142 -400.5t-415 -152.5q-274 0 -419.5 153t-145.5 400z" />
<glyph unicode="V" horiz-adv-x="1341" d="M20 1434h285l365 -1170h4l364 1170h283l-465 -1434h-371z" />
<glyph unicode="W" horiz-adv-x="2093" d="M51 1434h283l250 -1151h4l268 1151h371l278 -1151h4l250 1151h283l-346 -1434h-381l-266 1155h-5l-266 -1155h-381z" />
<glyph unicode="X" horiz-adv-x="1292" d="M20 0l459 721l-440 713h311l297 -521l297 521h311l-440 -713l457 -721h-322l-303 522l-303 -522h-324z" />
<glyph unicode="Y" horiz-adv-x="1198" d="M10 1434h299l289 -625l291 625h299l-459 -897v-537h-258v537z" />
<glyph unicode="Z" horiz-adv-x="1126" d="M51 0v215l707 979h-688v240h1005v-215l-698 -977h678v-242h-1004z" />
<glyph unicode="[" horiz-adv-x="579" d="M133 -455v2048h395v-213h-172v-1622h172v-213h-395z" />
<glyph unicode="\" horiz-adv-x="1036" d="M10 1577l193 88l823 -1804l-192 -88z" />
<glyph unicode="]" horiz-adv-x="579" d="M51 -242h172v1622h-172v213h395v-2048h-395v213z" />
<glyph unicode="^" horiz-adv-x="1193" d="M92 672l375 762h262l373 -762h-234l-270 569l-270 -569h-236z" />
<glyph unicode="_" horiz-adv-x="1167" d="M92 -106h983v-216h-983v216z" />
<glyph unicode="`" horiz-adv-x="657" d="M92 1542h330l143 -262h-231z" />
<glyph unicode="a" horiz-adv-x="1101" d="M82 293q0 139 82 229t272 131q193 39 252.5 73t59.5 91q0 61 -50.5 98t-148.5 37q-201 0 -318 -225h-12l-127 203q76 113 196 177t263 64q199 0 318.5 -107.5t119.5 -297.5v-766h-194l-27 152h-6q-106 -176 -338 -177q-168 0 -255 85t-87 233zM319 311.5q0 -55.5 39 -86 t105 -30.5q111 0 198 61t87 150v161h-5q-16 -31 -68 -53t-167 -49q-106 -25 -147.5 -61.5t-41.5 -92z" />
<glyph unicode="b" horiz-adv-x="1288" d="M133 0v1520h246v-496h4q47 63 133 105t186 42q223 0 369 -172t146 -430q0 -262 -134.5 -428t-370 -166t-345.5 177h-7l-26 -152h-201zM375 565q0 -162 82 -261t221 -99q141 0 217 101.5t76 262.5q0 156 -78 266.5t-217 110.5q-141 0 -221 -106.5t-80 -274.5z" />
<glyph unicode="c" horiz-adv-x="1138" d="M72 567q0 262 159 433t392 171q164 0 282.5 -81.5t167.5 -184.5l-158 -182h-12q-37 100 -108.5 161.5t-171.5 61.5q-135 0 -220.5 -112.5t-85.5 -266.5q0 -160 82 -261t222 -101q121 0 197.5 77.5t101.5 186.5h12l186 -164q-57 -145 -183 -237.5t-314 -92.5 q-258 0 -403.5 165t-145.5 427z" />
<glyph unicode="d" horiz-adv-x="1288" d="M72 569q0 258 145 430t369 172q102 0 188 -42t131 -105h4v496h246v-1520h-199l-26 152h-6q-111 -176 -346 -177q-238 0 -372 166t-134 428zM317 569q0 -160 77 -262t218 -102q139 0 221 99t82 261q0 168 -81 274.5t-222 106.5q-139 0 -217 -110.5t-78 -266.5z" />
<glyph unicode="e" horiz-adv-x="1200" d="M72 571q0 262 153.5 431t378.5 169t374.5 -163.5t149.5 -423.5l-2 -84h-802q4 -127 86 -211t213 -84q104 0 192 58.5t135 131.5h13l110 -219q-53 -76 -175 -138.5t-275 -62.5q-254 0 -402.5 164t-148.5 432zM330 694h542q-8 104 -80.5 178t-187.5 74t-186.5 -75.5 t-87.5 -176.5z" />
<glyph unicode="f" horiz-adv-x="776" d="M10 922v225h226v209q0 150 78.5 223.5t197.5 73.5q88 0 164 -33t110 -70l-53 -233h-12q-72 88 -162 88q-78 0 -78 -82v-176h248v-225h-248v-922h-245v922h-226z" />
<glyph unicode="g" horiz-adv-x="1241" d="M72 620.5q0 239.5 143 395t342 155.5q121 0 205 -50t127 -126h6l18 152h195v-1055q0 -135 -44 -234.5t-120 -154.5t-163 -80.5t-185 -25.5q-131 0 -248 51t-184 123l88 217h12q156 -164 320 -164q137 0 205.5 69.5t68.5 223.5v119h-10q-102 -139 -301 -140 q-215 0 -345 142.5t-130 382zM319 625q0 -131 70 -215t203 -84q129 0 202.5 79.5t73.5 229.5q-2 135 -73.5 223t-194.5 88q-141 0 -211 -94t-70 -227z" />
<glyph unicode="h" horiz-adv-x="1224" d="M133 0v1520h246v-531h4q121 182 350 182q182 0 280.5 -116.5t98.5 -290.5v-764h-246v682q0 264 -211 264q-129 0 -202.5 -104.5t-73.5 -251.5v-590h-246z" />
<glyph unicode="i" d="M92 1458q0 74 44 118t122 44t121 -44t43 -118t-43 -118t-121 -44t-122 44t-44 118zM133 0v1147h246v-1147h-246z" />
<glyph unicode="j" horiz-adv-x="518" d="M-133 -385l35 238h12q57 -31 113 -31q113 0 112 108v1217h246v-1237q0 -164 -86 -252t-225 -88q-125 0 -207 45zM96 1458q0 74 44 118t122 44t121 -44t43 -118t-43 -118t-121 -44t-122 44t-44 118z" />
<glyph unicode="k" horiz-adv-x="1083" d="M133 0v1520h248v-922h4l397 549h303l-442 -567l451 -580h-314l-395 545h-6v-545h-246z" />
<glyph unicode="l" d="M133 0v1520h246v-1520h-246z" />
<glyph unicode="m" horiz-adv-x="1857" d="M133 0v1147h205l16 -152h8q111 176 328 176q227 0 316 -200h6q43 88 135 144t213 56q197 0 291 -110.5t94 -278.5v-782h-246v682q0 264 -190 264q-113 0 -180.5 -92t-67.5 -246v-608h-246v684q0 262 -186 262q-117 0 -183.5 -91t-66.5 -247v-608h-246z" />
<glyph unicode="n" horiz-adv-x="1230" d="M133 0v1147h205l16 -152h6q120 176 349 176q199 0 304 -115.5t105 -291.5v-764h-246v696q0 250 -213 250q-127 0 -203.5 -96t-76.5 -260v-590h-246z" />
<glyph unicode="o" horiz-adv-x="1249" d="M72 567q0 256 159.5 430t393 174t393.5 -174t160 -430q0 -258 -148.5 -425t-404.5 -167t-404.5 166t-148.5 426zM317 565q0 -160 82 -260t224 -100q143 0 226 101.5t83 262.5q0 154 -85 265.5t-222.5 111.5t-222.5 -112.5t-85 -268.5z" />
<glyph unicode="p" horiz-adv-x="1263" d="M133 -379v1526h207l18 -152h7q43 76 129.5 126t207.5 50q213 0 351.5 -172t138.5 -430q0 -262 -131 -428t-359 -166q-102 0 -185 43t-130 111h-8v-508h-246zM369 565q0 -164 80.5 -262t214.5 -98q135 0 208.5 100.5t73.5 264t-74.5 270t-209.5 106.5q-137 0 -215 -104.5 t-78 -276.5z" />
<glyph unicode="q" horiz-adv-x="1263" d="M72 569q0 258 139 430t352 172q119 0 205 -51t127 -123h6l21 150h208v-1526h-245v508h-6q-111 -154 -322 -154q-223 0 -354 167t-131 427zM317 571q0 -166 75 -266t212 -100q133 0 212 98t79 264q0 170 -78 274.5t-213 104.5q-137 0 -212 -105.5t-75 -269.5z" />
<glyph unicode="r" horiz-adv-x="821" d="M133 0v1147h207l18 -152h7q33 86 96 131t143 45q127 0 193 -79l-43 -246h-13q-63 76 -166 76q-98 0 -147 -81t-49 -227v-614h-246z" />
<glyph unicode="s" horiz-adv-x="1079" d="M72 195l110 211h13q70 -88 166 -145.5t200 -57.5q205 0 205 116q0 53 -52 85t-239 81q-193 49 -282 130t-89 216q0 141 111 240.5t297 99.5q158 0 278.5 -67.5t180.5 -145.5l-109 -204h-12q-63 88 -153.5 143t-184.5 55q-80 0 -125 -36.5t-45 -86.5q0 -33 12.5 -53 t71.5 -47t178 -57q215 -53 309.5 -131t94.5 -229.5t-122 -244t-311 -92.5q-168 0 -300 64.5t-203 155.5z" />
<glyph unicode="t" horiz-adv-x="856" d="M47 922v143q205 88 281 369h147v-287h330v-225h-328v-600q0 -96 82 -97q68 0 143 56h13l59 -236q-104 -70 -256 -70q-125 0 -206 71t-81 212v664h-184z" />
<glyph unicode="u" horiz-adv-x="1177" d="M113 383v764h245v-690q0 -127 42 -190.5t139 -63.5q115 0 187.5 93t72.5 245v606h245v-1147h-198l-27 152h-6q-39 -80 -123 -128.5t-196 -48.5q-182 0 -281.5 114t-99.5 294z" />
<glyph unicode="v" horiz-adv-x="1169" d="M20 1147h269l293 -918h4l295 918h268l-404 -1147h-323z" />
<glyph unicode="w" horiz-adv-x="1755" d="M41 1147h268l174 -899h4l218 899h346l219 -899h4l174 899h266l-276 -1147h-334l-223 911h-4l-224 -911h-334z" />
<glyph unicode="x" horiz-adv-x="1087" d="M20 0l355 580l-334 567h287l213 -412l225 412h287l-344 -565l354 -582h-291l-231 424l-230 -424h-291z" />
<glyph unicode="y" horiz-adv-x="1099" d="M31 1147h272l258 -768h2l238 768h268l-524 -1526h-273l162 467z" />
<glyph unicode="z" horiz-adv-x="1081" d="M113 0v209l557 715h-557v223h856v-207l-557 -713h557v-227h-856z" />
<glyph unicode="{" horiz-adv-x="722" d="M133 471v215q90 0 123 25.5t33 103.5v533q0 137 58.5 191t168.5 54h156v-215h-90q-74 0 -74 -94v-518q0 -84 -28.5 -125t-92.5 -63v-3q121 -49 121 -188v-532q0 -94 74 -95h90v-215h-156q-111 0 -169 54.5t-58 191.5v549q0 78 -34 104.5t-122 26.5z" />
<glyph unicode="|" horiz-adv-x="602" d="M195 -516v2134h213v-2134h-213z" />
<glyph unicode="}" horiz-adv-x="722" d="M51 -242h90q74 0 74 95v534q0 139 121 188v3q-63 23 -92 63.5t-29 124.5v518q0 94 -74 94h-90v215h156q111 0 169 -54t58 -191v-535q0 -78 33 -103.5t123 -25.5v-215q-88 0 -122 -26.5t-34 -104.5v-549q0 -137 -58.5 -191.5t-168.5 -54.5h-156v215z" />
<glyph unicode="~" horiz-adv-x="1210" d="M92 774q106 180 279 180q16 0 32.5 -2t38 -8t33.5 -9t38 -14.5t35 -15.5t39.5 -18.5t37.5 -16.5q147 -68 209 -67q45 0 82.5 26.5t57 54t44.5 72.5h12l88 -215q-106 -178 -278 -178q-14 0 -27.5 1t-29 5t-25.5 6.5t-27.5 9.5t-26 9t-28 12t-24.5 12.5t-27.5 13.5 t-26.5 13t-30.5 14.5t-33 15.5t-29 12t-32.5 12t-29.5 7.5t-35 6.5t-31.5 2q-104 0 -182 -156h-13z" />
<glyph unicode="&#xa0;" />
<glyph unicode="&#xa1;" horiz-adv-x="659" d="M154 985q0 80 47 128t131 48q82 0 128 -48t46 -128q0 -78 -46 -126t-128 -48q-84 0 -131 48t-47 126zM182 98l41 584h221l41 -584v-385h-303v385z" />
<glyph unicode="&#xa2;" horiz-adv-x="1292" d="M113 567q0 229 129 393t331 201v174h205v-170q137 -23 235.5 -98.5t141.5 -161.5l-151 -178h-13q-59 164 -213 211v-725q174 51 230 250h12l180 -158q-51 -127 -157.5 -214t-264.5 -109v-211h-205v213q-219 33 -339.5 192.5t-120.5 390.5zM354 567q0 -135 57.5 -227 t161.5 -123v713q-102 -37 -160.5 -137.5t-58.5 -225.5z" />
<glyph unicode="&#xa3;" horiz-adv-x="1269" d="M154 596v188h145q-86 184 -86 303q0 160 115.5 265.5t316.5 105.5q193 0 317.5 -85t188.5 -208l-154 -178h-12q-123 242 -323 242q-90 0 -142.5 -45t-52.5 -127q0 -25 4 -50.5t14.5 -58.5t16.5 -50t23.5 -59t21.5 -55h430v-188h-367q12 -53 13 -82q0 -63 -27 -119.5 t-50.5 -81t-70.5 -67.5l4 -4q63 35 168 34q55 0 141 -22.5t134 -22.5q102 0 180 78h12l84 -235q-121 -96 -305 -97q-74 0 -175.5 38t-160.5 38q-121 0 -250 -82l-135 222q209 129 209 323q0 35 -10 80h-217z" />
<glyph unicode="&#xa4;" horiz-adv-x="1349" d="M154 233l133 134q-96 131 -97 307q0 170 97 305l-133 133l82 82l129 -131q137 117 309 117q180 0 313 -113l127 127l82 -82l-131 -131q94 -137 94 -307q0 -178 -96 -309l133 -132l-82 -81l-131 129q-131 -104 -309 -105q-182 0 -307 107l-131 -131zM446 672 q0 -137 68 -205t162 -68q92 0 158.5 68t66.5 205q0 139 -66.5 208.5t-158.5 69.5q-94 0 -162 -69.5t-68 -208.5z" />
<glyph unicode="&#xa5;" horiz-adv-x="1361" d="M92 1434h297l291 -600l295 600h295l-365 -691h283v-198h-377v-121h377v-201h-377v-223h-258v223h-377v201h377v121h-377v198h281z" />
<glyph unicode="&#xa6;" horiz-adv-x="602" d="M195 420h213v-936h-213v936zM195 768v850h213v-850h-213z" />
<glyph unicode="&#xa7;" horiz-adv-x="1212" d="M92 600q0 193 215 274q-125 102 -125 250q0 141 107 237.5t297 96.5q160 0 279.5 -69.5t174.5 -153.5l-114 -203h-13q-57 88 -145 144.5t-186 56.5q-74 0 -115 -33t-41 -78q0 -53 50 -95t204 -132q45 -27 70 -41q211 -125 290.5 -208t79.5 -189q0 -96 -58 -167t-157 -108 q127 -106 127 -250q0 -139 -107.5 -237t-295.5 -98q-160 0 -279 69.5t-178 153.5l117 203h12q57 -86 145.5 -143.5t186.5 -57.5q74 0 114.5 32.5t40.5 79.5q0 61 -88 123q-33 25 -237 146q-209 125 -290 208t-81 189zM334 612q0 -55 58.5 -100t350.5 -221q137 59 138 153 q0 33 -7.5 50.5t-56.5 55.5t-118.5 80t-231.5 134q-133 -55 -133 -152z" />
<glyph unicode="&#xa8;" horiz-adv-x="897" d="M92 1405q0 63 36.5 100t104.5 37q63 0 100.5 -37t37.5 -100q0 -61 -37 -99t-101 -38q-66 0 -103.5 37.5t-37.5 99.5zM528 1404.5q0 63.5 36 100.5t104 37q63 0 100 -37t37 -100q0 -61 -37 -99t-100 -38q-66 0 -103 36.5t-37 100z" />
<glyph unicode="&#xa9;" horiz-adv-x="1667" d="M92 714.5q0 313.5 206.5 528.5t532.5 215q328 0 536 -215t208 -528.5t-205 -526.5t-539 -213q-332 0 -535.5 213t-203.5 526.5zM268 715q0 -244 155 -411t408 -167q256 0 412 167t156 411q0 246 -156 413.5t-412 167.5q-254 0 -408.5 -167.5t-154.5 -413.5zM449 715 q0 188 114.5 313t282.5 125q121 0 207 -59.5t121 -132.5l-117 -138h-13q-27 70 -78 116t-118 46q-96 0 -155.5 -80t-59.5 -190q0 -113 57.5 -184.5t155.5 -71.5q84 0 138 54t73 134h12l137 -123q-43 -104 -134 -170.5t-226 -66.5q-186 0 -291.5 120.5t-105.5 307.5z" />
<glyph unicode="&#xaa;" horiz-adv-x="671" d="M37 924q0 86 51 138t166 77q117 23 146.5 38t29.5 46q0 63 -106 63q-117 0 -197 -115h-8l-78 140q99 135 283 135q123 0 201.5 -62.5t78.5 -193.5v-445h-137l-16 91h-5q-61 -102 -204 -103q-98 0 -151.5 51.5t-53.5 139.5zM211 938q0 -49 68 -49q55 0 104 28.5t49 73.5 v76h-4q-14 -29 -123 -53q-94 -20 -94 -76z" />
<glyph unicode="&#xab;" horiz-adv-x="1034" d="M92 567l227 426h226l-197 -426l197 -426h-226zM489 567l228 426h225l-197 -426l197 -426h-225z" />
<glyph unicode="&#xac;" horiz-adv-x="1204" d="M92 727v225h1020v-614h-225v389h-795z" />
<glyph unicode="&#xad;" horiz-adv-x="788" d="M92 532v226h604v-226h-604z" />
<glyph unicode="&#xae;" horiz-adv-x="1667" d="M92 714.5q0 313.5 206.5 528.5t532.5 215q328 0 536 -215t208 -528.5t-205 -526.5t-539 -213q-332 0 -535.5 213t-203.5 526.5zM268 715q0 -244 155 -411t408 -167q256 0 412 167t156 411q0 246 -156 413.5t-412 167.5q-254 0 -408.5 -167.5t-154.5 -413.5zM578 299v842 h303q139 0 217 -65.5t78 -184.5q0 -125 -64.5 -192.5t-167.5 -84.5l201 -315h-178l-193 317h-31v-317h-165zM743 764h105q158 0 158 115q0 106 -142 106h-121v-221z" />
<glyph unicode="&#xaf;" horiz-adv-x="829" d="M92 1280v190h645v-190h-645z" />
<glyph unicode="&#xb0;" horiz-adv-x="868" d="M92 1226.5q0 143.5 98.5 243t244 99.5t243.5 -99.5t98 -243t-97 -242.5t-244.5 -99t-245 99t-97.5 242.5zM297 1226.5q0 -65.5 38 -107.5t99.5 -42t99 42t37.5 107.5t-37.5 107.5t-99 42t-99.5 -42t-38 -107.5z" />
<glyph unicode="&#xb1;" horiz-adv-x="1208" d="M92 801v225h400v338h225v-338h399v-225h-399v-359h-225v359h-400zM133 104v226h942v-226h-942z" />
<glyph unicode="&#xb4;" horiz-adv-x="657" d="M92 1280l144 262h329l-241 -262h-232z" />
<glyph unicode="&#xb6;" horiz-adv-x="1390" d="M51 1057q0 377 488 377h657v-1665h-233v1450h-232v-1450h-235v925q-205 0 -325 99.5t-120 263.5z" />
<glyph unicode="&#xb7;" horiz-adv-x="495" d="M92 829.5q0 69.5 42 112.5t116 43q72 0 112.5 -43t40.5 -112.5t-40.5 -112.5t-112.5 -43q-74 0 -116 43t-42 112.5z" />
<glyph unicode="&#xb8;" horiz-adv-x="681" d="M98 -440l35 127h10q70 -57 152 -58q43 0 70.5 19.5t27.5 54.5q0 78 -94 78q-59 0 -106 -33l-76 51l112 201h117l-92 -150l2 -2q55 35 139 35q82 0 131 -49t49 -133q0 -100 -67.5 -152.5t-183.5 -52.5q-137 0 -226 64z" />
<glyph unicode="&#xba;" horiz-adv-x="743" d="M37 1085q0 154 97 257.5t238.5 103.5t239 -103.5t97.5 -257.5q0 -156 -90.5 -254t-245.5 -98q-158 0 -247 98.5t-89 253.5zM211 1090q0 -86 41 -140.5t121 -54.5t121 54.5t41 140.5q0 82 -42 141t-120 59t-120 -58t-42 -142z" />
<glyph unicode="&#xbb;" horiz-adv-x="1034" d="M92 141l197 426l-197 426h225l228 -426l-228 -426h-225zM489 141l197 426l-197 426h226l227 -426l-227 -426h-226z" />
<glyph unicode="&#xbc;" horiz-adv-x="1822" d="M86 1343l229 97h168v-856h-190v700h-4l-162 -67zM301 -23l862 1471h150l-862 -1471h-150zM922 207v100l450 557h193v-532h145v-125h-145v-207h-179v207h-464zM1085 334l2 -2h299v231q0 72 7 135l-7 2q-35 -55 -77 -108z" />
<glyph unicode="&#xbd;" horiz-adv-x="1916" d="M86 1343l229 97h168v-856h-190v700h-4l-162 -67zM301 -23l862 1471h150l-862 -1471h-150zM1098 0v106l166 136q166 131 231.5 204.5t65.5 139.5q0 53 -41 94t-134 41q-123 0 -219 -70l-55 123q139 92 324 92q150 0 235.5 -71.5t85.5 -180.5q0 -49 -18.5 -95t-38 -76.5 t-75.5 -82t-82.5 -72t-106.5 -83.5l-82 -60v-4h420v-141h-676z" />
<glyph unicode="&#xbe;" horiz-adv-x="2000" d="M76 633l43 129q96 -57 235 -57q104 0 167 38.5t63 96.5q0 63 -75 100t-196 37h-75v117h75q100 0 169 33.5t69 86.5q0 43 -43 74t-133 31q-109 0 -213 -57l-41 120q119 70 303 70q154 0 237.5 -60.5t83.5 -150.5q0 -70 -53 -122t-141 -79v-4q102 -12 167.5 -70.5 t65.5 -136.5q0 -111 -107.5 -183.5t-293.5 -72.5q-199 0 -307 60zM477 -23l862 1471h152l-864 -1471h-150zM1098 207v100l448 557h195v-532h145v-125h-145v-207h-178v207h-465zM1262 334l4 -2h297v231q0 6 6 135l-4 2q-59 -86 -80 -110z" />
<glyph unicode="&#xbf;" horiz-adv-x="1064" d="M123 -4q0 113 58.5 173t217.5 132q147 66 190.5 94.5t43.5 63.5q0 66 -86 65q-51 0 -113.5 -32.5t-99.5 -79.5h-15l-104 176q55 61 151.5 103t208.5 42q129 0 210 -65.5t81 -190.5q0 -115 -71.5 -181.5t-212.5 -129.5q-147 -68 -185.5 -93.5t-38.5 -68.5t37 -67.5 t107 -24.5q174 0 303 182h12l115 -207q-61 -80 -178 -139t-250 -59q-174 0 -277.5 88t-103.5 219zM354 993.5q0 75.5 45 121.5t123 46q80 0 124 -46t44 -121.5t-44 -121t-124 -45.5q-78 0 -123 45.5t-45 121z" />
<glyph unicode="&#xc0;" horiz-adv-x="1411" d="M20 0l504 1434h365l502 -1434h-275l-119 352h-583l-119 -352h-275zM326 1823h329l144 -262h-232zM487 578h437l-213 630h-11z" />
<glyph unicode="&#xc1;" horiz-adv-x="1411" d="M20 0l504 1434h365l502 -1434h-275l-119 352h-583l-119 -352h-275zM487 578h437l-213 630h-11zM590 1561l143 262h330l-242 -262h-231z" />
<glyph unicode="&#xc2;" horiz-adv-x="1411" d="M20 0l504 1434h365l502 -1434h-275l-119 352h-583l-119 -352h-275zM352 1561l191 262h327l189 -262h-238l-112 174h-7l-112 -174h-238zM487 578h437l-213 630h-11z" />
<glyph unicode="&#xc3;" horiz-adv-x="1411" d="M20 0l504 1434h365l502 -1434h-275l-119 352h-583l-119 -352h-275zM385 1561q8 111 56 187.5t134 76.5q61 0 146.5 -39t114.5 -39q57 0 73 68h117q-8 -111 -56 -188t-134 -77q-61 0 -147.5 39t-115.5 39q-57 0 -73 -67h-115zM487 578h437l-213 630h-11z" />
<glyph unicode="&#xc4;" horiz-adv-x="1411" d="M20 0l504 1434h365l502 -1434h-275l-119 352h-583l-119 -352h-275zM350 1685.5q0 63.5 37 100.5t105 37q63 0 100 -37t37 -100q0 -61 -37 -99.5t-100 -38.5q-66 0 -104 37t-38 100.5zM487 578h437l-213 630h-11zM786 1685.5q0 63.5 36 100.5t104 37q63 0 100 -37t37 -100 q0 -61 -37 -99.5t-100 -38.5q-66 0 -103 37t-37 100.5z" />
<glyph unicode="&#xc5;" horiz-adv-x="1411" d="M20 0l504 1434h365l502 -1434h-275l-119 352h-583l-119 -352h-275zM457 1755.5q0 104.5 72.5 177t177 72.5t177 -72.5t72.5 -177.5q0 -102 -72.5 -176t-176.5 -74q-102 0 -176 73t-74 177.5zM487 578h437l-213 630h-11zM610 1757q0 -41 29 -68.5t67.5 -27.5t66.5 28.5 t28 67.5t-28 66.5t-66.5 27.5t-67.5 -27.5t-29 -66.5z" />
<glyph unicode="&#xc6;" horiz-adv-x="1886" d="M-10 0l743 1434h1041v-240h-549v-352h549v-226h-549v-374h549v-242h-795v352h-524l-181 -352h-284zM569 578h410v622h-94z" />
<glyph unicode="&#xc7;" horiz-adv-x="1349" d="M82 713q0 305 184.5 525t472.5 220q201 0 337 -100.5t200 -229.5l-182 -188h-13q-117 279 -342 279q-178 0 -286.5 -146.5t-108.5 -355.5q0 -215 101.5 -355.5t287.5 -140.5q137 0 233.5 92.5t135.5 251.5h12l215 -170q-61 -184 -217 -301t-373 -119l-77 -125l2 -2 q55 35 139 35q82 0 131 -49t49 -133q0 -100 -67.5 -152.5t-184.5 -52.5q-137 0 -225 64l35 127h10q70 -57 151 -58q43 0 71 19.5t28 54.5q0 78 -94 78q-59 0 -107 -33l-76 51l103 183q-266 37 -405.5 241.5t-139.5 489.5z" />
<glyph unicode="&#xc8;" horiz-adv-x="1179" d="M154 0v1434h913v-240h-651v-360h651v-226h-651v-366h651v-242h-913zM242 1823h329l144 -262h-232z" />
<glyph unicode="&#xc9;" horiz-adv-x="1179" d="M154 0v1434h913v-240h-651v-360h651v-226h-651v-366h651v-242h-913zM506 1561l143 262h330l-242 -262h-231z" />
<glyph unicode="&#xca;" horiz-adv-x="1179" d="M154 0v1434h913v-240h-651v-360h651v-226h-651v-366h651v-242h-913zM268 1561l191 262h327l189 -262h-238l-112 174h-7l-112 -174h-238z" />
<glyph unicode="&#xcb;" horiz-adv-x="1179" d="M154 0v1434h913v-240h-651v-360h651v-226h-651v-366h651v-242h-913zM266 1685.5q0 63.5 37 100.5t105 37q63 0 100 -37t37 -100q0 -61 -37 -99.5t-100 -38.5q-68 0 -105 37t-37 100.5zM702 1685.5q0 63.5 36 100.5t104 37q63 0 100 -37t37 -100q0 -61 -37 -99.5 t-100 -38.5q-66 0 -103 37t-37 100.5z" />
<glyph unicode="&#xcc;" horiz-adv-x="569" d="M-96 1823h329l144 -262h-232zM154 0v1434h262v-1434h-262z" />
<glyph unicode="&#xcd;" horiz-adv-x="569" d="M154 0v1434h262v-1434h-262zM168 1561l143 262h330l-242 -262h-231z" />
<glyph unicode="&#xce;" horiz-adv-x="569" d="M-70 1561l191 262h328l188 -262h-238l-112 174h-6l-113 -174h-238zM154 0v1434h262v-1434h-262z" />
<glyph unicode="&#xcf;" horiz-adv-x="569" d="M-72 1685.5q0 63.5 37 100.5t105 37q63 0 100 -37t37 -100q0 -61 -37 -99.5t-100 -38.5q-68 0 -105 37t-37 100.5zM154 0v1434h262v-1434h-262zM365 1685.5q0 63.5 35.5 100.5t103.5 37q63 0 100 -37t37 -100q0 -61 -37 -99.5t-100 -38.5q-66 0 -102.5 37t-36.5 100.5z " />
<glyph unicode="&#xd0;" horiz-adv-x="1470" d="M20 625v204h175v605h522q311 0 486 -178.5t175 -539t-173 -538.5t-488 -178h-522v625h-175zM457 242h291q176 0 273 125t97 350q0 229 -92 353t-278 124h-291v-365h307v-204h-307v-383z" />
<glyph unicode="&#xd1;" horiz-adv-x="1513" d="M154 0v1434h401l539 -1190h4v1190h262v-1434h-402l-538 1192h-4v-1192h-262zM436 1561q8 111 56.5 187.5t134.5 76.5q61 0 146 -39t114 -39q57 0 74 68h116q-8 -111 -56 -188t-134 -77q-61 0 -147.5 39t-114.5 39q-57 0 -74 -67h-115z" />
<glyph unicode="&#xd2;" horiz-adv-x="1480" d="M82 713q0 309 186.5 527t473 218t472 -219t185.5 -526q0 -315 -170 -526.5t-488 -211.5q-215 0 -367.5 103.5t-222 266.5t-69.5 368zM344 717q0 -219 104.5 -357.5t293 -138.5t293 137.5t104.5 358.5q0 211 -106.5 358.5t-291 147.5t-291 -147.5t-106.5 -358.5zM360 1823 h330l144 -262h-232z" />
<glyph unicode="&#xd3;" horiz-adv-x="1480" d="M82 713q0 309 186.5 527t473 218t472 -219t185.5 -526q0 -315 -170 -526.5t-488 -211.5q-215 0 -367.5 103.5t-222 266.5t-69.5 368zM344 717q0 -219 104.5 -357.5t293 -138.5t293 137.5t104.5 358.5q0 211 -106.5 358.5t-291 147.5t-291 -147.5t-106.5 -358.5zM625 1561 l143 262h330l-242 -262h-231z" />
<glyph unicode="&#xd4;" horiz-adv-x="1480" d="M82 713q0 309 186.5 527t473 218t472 -219t185.5 -526q0 -315 -170 -526.5t-488 -211.5q-215 0 -367.5 103.5t-222 266.5t-69.5 368zM344 717q0 -219 104.5 -357.5t293 -138.5t293 137.5t104.5 358.5q0 211 -106.5 358.5t-291 147.5t-291 -147.5t-106.5 -358.5zM387 1561 l191 262h327l189 -262h-238l-113 174h-6l-112 -174h-238z" />
<glyph unicode="&#xd5;" horiz-adv-x="1480" d="M82 713q0 309 186.5 527t473 218t472 -219t185.5 -526q0 -315 -170 -526.5t-488 -211.5q-215 0 -367.5 103.5t-222 266.5t-69.5 368zM344 717q0 -219 104.5 -357.5t293 -138.5t293 137.5t104.5 358.5q0 211 -106.5 358.5t-291 147.5t-291 -147.5t-106.5 -358.5zM420 1561 q8 111 56 187.5t134 76.5q61 0 146.5 -39t113.5 -39q57 0 74 68h117q-8 -111 -56.5 -188t-134.5 -77q-61 0 -147 39t-115 39q-57 0 -73 -67h-115z" />
<glyph unicode="&#xd6;" horiz-adv-x="1480" d="M82 713q0 309 186.5 527t473 218t472 -219t185.5 -526q0 -315 -170 -526.5t-488 -211.5q-215 0 -367.5 103.5t-222 266.5t-69.5 368zM344 717q0 -219 104.5 -357.5t293 -138.5t293 137.5t104.5 358.5q0 211 -106.5 358.5t-291 147.5t-291 -147.5t-106.5 -358.5z M385 1685.5q0 63.5 36.5 100.5t104.5 37q63 0 100.5 -37t37.5 -100q0 -61 -37 -99.5t-101 -38.5q-68 0 -104.5 37t-36.5 100.5zM821 1685.5q0 63.5 36 100.5t104 37q63 0 100 -37t37 -100q0 -61 -37 -99.5t-100 -38.5q-66 0 -103 37t-37 100.5z" />
<glyph unicode="&#xd7;" horiz-adv-x="1169" d="M92 391l340 340l-340 340l152 154l340 -342l340 342l153 -154l-342 -340l342 -340l-153 -153l-338 342l-340 -342z" />
<glyph unicode="&#xd8;" horiz-adv-x="1480" d="M82 723q0 297 187.5 516t471.5 219q164 0 314 -86l88 129l184 -121l-104 -153q176 -211 176 -504q0 -211 -69.5 -376t-221.5 -268.5t-367 -103.5q-184 0 -323 76l-86 -129l-185 123l101 148q-166 199 -166 530zM344 723q0 -178 64 -297l510 750q-81 47 -177 47 q-184 0 -290.5 -148.5t-106.5 -351.5zM563 264q76 -43 178 -43q188 0 293 138.5t105 363.5q0 158 -66 285z" />
<glyph unicode="&#xd9;" horiz-adv-x="1388" d="M133 528v906h262v-891q0 -152 75 -238t228 -86q152 0 224.5 86t72.5 238v891h260v-906q0 -248 -142 -400.5t-415 -152.5q-274 0 -419.5 153t-145.5 400zM315 1823h330l143 -262h-231z" />
<glyph unicode="&#xda;" horiz-adv-x="1388" d="M133 528v906h262v-891q0 -152 75 -238t228 -86q152 0 224.5 86t72.5 238v891h260v-906q0 -248 -142 -400.5t-415 -152.5q-274 0 -419.5 153t-145.5 400zM580 1561l143 262h330l-242 -262h-231z" />
<glyph unicode="&#xdb;" horiz-adv-x="1388" d="M133 528v906h262v-891q0 -152 75 -238t228 -86q152 0 224.5 86t72.5 238v891h260v-906q0 -248 -142 -400.5t-415 -152.5q-274 0 -419.5 153t-145.5 400zM342 1561l190 262h328l189 -262h-238l-113 174h-6l-112 -174h-238z" />
<glyph unicode="&#xdc;" horiz-adv-x="1388" d="M133 528v906h262v-891q0 -152 75 -238t228 -86q152 0 224.5 86t72.5 238v891h260v-906q0 -248 -142 -400.5t-415 -152.5q-274 0 -419.5 153t-145.5 400zM340 1685.5q0 63.5 36.5 100.5t104.5 37q63 0 100 -37t37 -100q0 -61 -36.5 -99.5t-100.5 -38.5q-68 0 -104.5 37 t-36.5 100.5zM776 1685.5q0 63.5 35.5 100.5t103.5 37q63 0 100.5 -37t37.5 -100q0 -61 -37 -99.5t-101 -38.5q-66 0 -102.5 37t-36.5 100.5z" />
<glyph unicode="&#xdd;" horiz-adv-x="1198" d="M10 1434h299l289 -625l291 625h299l-459 -897v-537h-258v537zM483 1561l144 262h329l-241 -262h-232z" />
<glyph unicode="&#xde;" horiz-adv-x="1245" d="M154 0v1434h262v-215h272q229 0 367.5 -121t138.5 -342q0 -219 -144.5 -341t-371.5 -122h-262v-293h-262zM416 535h231q143 0 215 58t72 165q0 221 -260 221h-258v-444z" />
<glyph unicode="&#xdf;" horiz-adv-x="1210" d="M133 0v987q0 213 121 342t336 129q209 0 322.5 -108.5t113.5 -264.5q0 -123 -71.5 -206.5t-182.5 -102.5v-4q156 -23 251 -127t95 -266q0 -178 -102.5 -291t-298.5 -113q-135 0 -244 45l29 228h6q88 -47 180 -47q84 0 136.5 50t52.5 155q0 111 -75 172t-212 61h-82v215 q137 4 207.5 58.5t70.5 142.5q0 84 -52 131t-144 47q-96 0 -150.5 -59.5t-54.5 -215.5v-958h-252z" />
<glyph unicode="&#xe0;" horiz-adv-x="1101" d="M82 293q0 139 82 229t272 131q193 39 252.5 73t59.5 91q0 61 -50.5 98t-148.5 37q-201 0 -318 -225h-12l-127 203q76 113 196 177t263 64q199 0 318.5 -107.5t119.5 -297.5v-766h-194l-27 152h-6q-106 -176 -338 -177q-168 0 -255 85t-87 233zM180 1542h330l143 -262 h-231zM319 311.5q0 -55.5 39 -86t105 -30.5q111 0 198 61t87 150v161h-5q-16 -31 -68 -53t-167 -49q-106 -25 -147.5 -61.5t-41.5 -92z" />
<glyph unicode="&#xe1;" horiz-adv-x="1101" d="M82 293q0 139 82 229t272 131q193 39 252.5 73t59.5 91q0 61 -50.5 98t-148.5 37q-201 0 -318 -225h-12l-127 203q76 113 196 177t263 64q199 0 318.5 -107.5t119.5 -297.5v-766h-194l-27 152h-6q-106 -176 -338 -177q-168 0 -255 85t-87 233zM319 311.5q0 -55.5 39 -86 t105 -30.5q111 0 198 61t87 150v161h-5q-16 -31 -68 -53t-167 -49q-106 -25 -147.5 -61.5t-41.5 -92zM434 1280l144 262h329l-241 -262h-232z" />
<glyph unicode="&#xe2;" horiz-adv-x="1101" d="M82 293q0 139 82 229t272 131q193 39 252.5 73t59.5 91q0 61 -50.5 98t-148.5 37q-201 0 -318 -225h-12l-127 203q76 113 196 177t263 64q199 0 318.5 -107.5t119.5 -297.5v-766h-194l-27 152h-6q-106 -176 -338 -177q-168 0 -255 85t-87 233zM199 1280l190 262h328 l188 -262h-237l-113 174h-6l-113 -174h-237zM319 311.5q0 -55.5 39 -86t105 -30.5q111 0 198 61t87 150v161h-5q-16 -31 -68 -53t-167 -49q-106 -25 -147.5 -61.5t-41.5 -92z" />
<glyph unicode="&#xe3;" horiz-adv-x="1101" d="M82 293q0 139 82 229t272 131q193 39 252.5 73t59.5 91q0 61 -50.5 98t-148.5 37q-201 0 -318 -225h-12l-127 203q76 113 196 177t263 64q199 0 318.5 -107.5t119.5 -297.5v-766h-194l-27 152h-6q-106 -176 -338 -177q-168 0 -255 85t-87 233zM231 1280q8 111 56.5 187.5 t134.5 76.5q61 0 146 -39t114 -39q57 0 74 68h116q-8 -111 -56 -187.5t-134 -76.5q-61 0 -147 39t-115 39q-57 0 -74 -68h-115zM319 311.5q0 -55.5 39 -86t105 -30.5q111 0 198 61t87 150v161h-5q-16 -31 -68 -53t-167 -49q-106 -25 -147.5 -61.5t-41.5 -92z" />
<glyph unicode="&#xe4;" horiz-adv-x="1101" d="M82 293q0 139 82 229t272 131q193 39 252.5 73t59.5 91q0 61 -50.5 98t-148.5 37q-201 0 -318 -225h-12l-127 203q76 113 196 177t263 64q199 0 318.5 -107.5t119.5 -297.5v-766h-194l-27 152h-6q-106 -176 -338 -177q-168 0 -255 85t-87 233zM195 1405q0 63 36.5 100 t104.5 37q63 0 100 -37t37 -100q0 -61 -37 -99t-100 -38q-66 0 -103.5 37.5t-37.5 99.5zM319 311.5q0 -55.5 39 -86t105 -30.5q111 0 198 61t87 150v161h-5q-16 -31 -68 -53t-167 -49q-106 -25 -147.5 -61.5t-41.5 -92zM631 1404.5q0 63.5 35.5 100.5t103.5 37q63 0 100 -37 t37 -100q0 -61 -36.5 -99t-100.5 -38q-66 0 -102.5 36.5t-36.5 100z" />
<glyph unicode="&#xe5;" horiz-adv-x="1101" d="M82 293q0 139 82 229t272 131q193 39 252.5 73t59.5 91q0 61 -50.5 98t-148.5 37q-201 0 -318 -225h-12l-127 203q76 113 196 177t263 64q199 0 318.5 -107.5t119.5 -297.5v-766h-194l-27 152h-6q-106 -176 -338 -177q-168 0 -255 85t-87 233zM301 1474.5 q0 104.5 72.5 177t177 72.5t177.5 -72.5t73 -176.5q0 -102 -73 -176t-177 -74q-102 0 -176 72.5t-74 177zM319 311.5q0 -55.5 39 -86t105 -30.5q111 0 198 61t87 150v161h-5q-16 -31 -68 -53t-167 -49q-106 -25 -147.5 -61.5t-41.5 -92zM455 1477q0 -45 27.5 -71t68.5 -26 t67.5 26t26.5 71q0 43 -27.5 68.5t-66.5 25.5q-41 0 -68.5 -25.5t-27.5 -68.5z" />
<glyph unicode="&#xe6;" horiz-adv-x="1853" d="M74 293q0 139 82 227t270 127q195 41 255 76t60 94q0 63 -51 102t-149 39q-100 0 -186.5 -61t-139.5 -168h-12l-123 203q76 111 196.5 175t266.5 64q242 0 354 -153q143 153 360 153q225 0 375 -164.5t150 -424.5l-2 -82h-811q4 -129 89 -215t218 -86q106 0 195.5 58 t136.5 134h10l108 -215q-53 -76 -174.5 -138.5t-275.5 -62.5q-283 0 -432 201q-133 -201 -430 -201q-166 0 -253 85t-87 233zM303 307q0 -57 41 -85.5t109 -26.5q111 4 200.5 64t89.5 147v165h-4q-16 -33 -66 -52t-175 -50q-111 -29 -153 -64.5t-42 -97.5zM975 688h559 q-6 109 -80 186.5t-197 77.5q-119 0 -193.5 -79.5t-88.5 -184.5z" />
<glyph unicode="&#xe7;" horiz-adv-x="1138" d="M72 567q0 262 158.5 433t392.5 171q164 0 282.5 -81.5t167.5 -184.5l-158 -182h-12q-37 100 -108.5 161.5t-171.5 61.5q-135 0 -220.5 -112.5t-85.5 -266.5q0 -160 82 -261t222 -101q121 0 197.5 77.5t101.5 186.5h12l186 -164q-55 -141 -178 -233t-305 -97l-78 -125 l2 -2q55 35 139 35q82 0 131.5 -49t49.5 -133q0 -100 -68 -152.5t-184 -52.5q-137 0 -226 64l35 127h10q70 -57 152 -58q43 0 70.5 19.5t27.5 54.5q0 78 -94 78q-59 0 -106 -33l-76 51l102 183q-213 31 -331.5 191.5t-118.5 393.5z" />
<glyph unicode="&#xe8;" horiz-adv-x="1200" d="M72 571q0 262 153.5 431t378.5 169t374.5 -163.5t149.5 -423.5l-2 -84h-802q4 -127 86 -211t213 -84q104 0 192 58.5t135 131.5h13l110 -219q-53 -76 -175 -138.5t-275 -62.5q-254 0 -402.5 164t-148.5 432zM233 1542h330l144 -262h-232zM330 694h542q-8 104 -80.5 178 t-187.5 74t-186.5 -75.5t-87.5 -176.5z" />
<glyph unicode="&#xe9;" horiz-adv-x="1200" d="M72 571q0 262 153.5 431t378.5 169t374.5 -163.5t149.5 -423.5l-2 -84h-802q4 -127 86 -211t213 -84q104 0 192 58.5t135 131.5h13l110 -219q-53 -76 -175 -138.5t-275 -62.5q-254 0 -402.5 164t-148.5 432zM330 694h542q-8 104 -80.5 178t-187.5 74t-186.5 -75.5 t-87.5 -176.5zM489 1280l144 262h330l-242 -262h-232z" />
<glyph unicode="&#xea;" horiz-adv-x="1200" d="M72 571q0 262 153.5 431t378.5 169t374.5 -163.5t149.5 -423.5l-2 -84h-802q4 -127 86 -211t213 -84q104 0 192 58.5t135 131.5h13l110 -219q-53 -76 -175 -138.5t-275 -62.5q-254 0 -402.5 164t-148.5 432zM252 1280l190 262h328l188 -262h-237l-113 174h-6l-113 -174 h-237zM330 694h542q-8 104 -80.5 178t-187.5 74t-186.5 -75.5t-87.5 -176.5z" />
<glyph unicode="&#xeb;" horiz-adv-x="1200" d="M72 571q0 262 153.5 431t378.5 169t374.5 -163.5t149.5 -423.5l-2 -84h-802q4 -127 86 -211t213 -84q104 0 192 58.5t135 131.5h13l110 -219q-53 -76 -175 -138.5t-275 -62.5q-254 0 -402.5 164t-148.5 432zM250 1405q0 63 36.5 100t104.5 37q63 0 100 -37t37 -100 q0 -61 -36.5 -99t-100.5 -38q-68 0 -104.5 37.5t-36.5 99.5zM330 694h542q-8 104 -80.5 178t-187.5 74t-186.5 -75.5t-87.5 -176.5zM686 1404.5q0 63.5 35.5 100.5t103.5 37q63 0 100.5 -37t37.5 -100q0 -61 -37 -99t-101 -38q-66 0 -102.5 36.5t-36.5 100z" />
<glyph unicode="&#xec;" d="M-115 1542h330l143 -262h-231zM133 0v1147h246v-1147h-246z" />
<glyph unicode="&#xed;" d="M133 0v1147h246v-1147h-246zM141 1280l144 262h329l-241 -262h-232z" />
<glyph unicode="&#xee;" d="M-96 1280l190 262h328l188 -262h-237l-113 174h-6l-113 -174h-237zM133 0v1147h246v-1147h-246z" />
<glyph unicode="&#xef;" d="M-100 1404.5q0 63.5 36.5 100.5t104.5 37q63 0 100 -37t37 -100q0 -61 -37 -99t-100 -38q-68 0 -104.5 36.5t-36.5 100zM133 0v1147h246v-1147h-246zM336 1404.5q0 63.5 35.5 100.5t103.5 37q63 0 100 -37t37 -100q0 -61 -36.5 -99t-100.5 -38q-66 0 -102.5 36.5 t-36.5 100z" />
<glyph unicode="&#xf0;" horiz-adv-x="1255" d="M72 567q0 252 156.5 428t367.5 176q109 0 200 -49t130 -112h4q-39 197 -215 336l-207 -119l-70 127l133 78q-55 29 -131 57l-2 4l78 182q147 -53 262 -127l215 125l70 -129l-162 -92q283 -270 283 -807q0 -305 -144.5 -487.5t-414.5 -182.5q-258 0 -405.5 166t-147.5 426 zM317 561q0 -156 83 -256t225 -100q143 2 225 109.5t82 254.5q0 154 -85 265.5t-222.5 111.5t-222.5 -112.5t-85 -272.5z" />
<glyph unicode="&#xf1;" horiz-adv-x="1230" d="M133 0v1147h205l16 -152h6q120 176 349 176q199 0 304 -115.5t105 -291.5v-764h-246v696q0 250 -213 250q-127 0 -203.5 -96t-76.5 -260v-590h-246zM362 1280q8 111 56.5 187.5t134.5 76.5q61 0 146 -39t114 -39q57 0 74 68h117q-8 -111 -56.5 -187.5t-134.5 -76.5 q-61 0 -147 39t-115 39q-57 0 -74 -68h-115z" />
<glyph unicode="&#xf2;" horiz-adv-x="1249" d="M72 567q0 256 159.5 430t393 174t393.5 -174t160 -430q0 -258 -148.5 -425t-404.5 -167t-404.5 166t-148.5 426zM254 1542h330l143 -262h-231zM317 565q0 -160 82 -260t224 -100q143 0 226 101.5t83 262.5q0 154 -85 265.5t-222.5 111.5t-222.5 -112.5t-85 -268.5z" />
<glyph unicode="&#xf3;" horiz-adv-x="1249" d="M72 567q0 256 159.5 430t393 174t393.5 -174t160 -430q0 -258 -148.5 -425t-404.5 -167t-404.5 166t-148.5 426zM317 565q0 -160 82 -260t224 -100q143 0 226 101.5t83 262.5q0 154 -85 265.5t-222.5 111.5t-222.5 -112.5t-85 -268.5zM508 1280l143 262h330l-242 -262 h-231z" />
<glyph unicode="&#xf4;" horiz-adv-x="1249" d="M72 567q0 256 159.5 430t393 174t393.5 -174t160 -430q0 -258 -148.5 -425t-404.5 -167t-404.5 166t-148.5 426zM272 1280l191 262h328l188 -262h-238l-112 174h-6l-113 -174h-238zM317 565q0 -160 82 -260t224 -100q143 0 226 101.5t83 262.5q0 154 -85 265.5 t-222.5 111.5t-222.5 -112.5t-85 -268.5z" />
<glyph unicode="&#xf5;" horiz-adv-x="1249" d="M72 567q0 256 159.5 430t393 174t393.5 -174t160 -430q0 -258 -148.5 -425t-404.5 -167t-404.5 166t-148.5 426zM305 1280q8 111 56.5 187.5t134.5 76.5q61 0 146 -39t114 -39q57 0 73 68h117q-8 -111 -56 -187.5t-134 -76.5q-61 0 -147.5 39t-114.5 39q-57 0 -74 -68 h-115zM317 565q0 -160 82 -260t224 -100q143 0 226 101.5t83 262.5q0 154 -85 265.5t-222.5 111.5t-222.5 -112.5t-85 -268.5z" />
<glyph unicode="&#xf6;" horiz-adv-x="1249" d="M72 567q0 256 159.5 430t393 174t393.5 -174t160 -430q0 -258 -148.5 -425t-404.5 -167t-404.5 166t-148.5 426zM268 1405q0 63 37 100t105 37q63 0 100 -37t37 -100q0 -61 -37 -99t-100 -38q-66 0 -104 37.5t-38 99.5zM317 565q0 -160 82 -260t224 -100q143 0 226 101.5 t83 262.5q0 154 -85 265.5t-222.5 111.5t-222.5 -112.5t-85 -268.5zM705 1404.5q0 63.5 35.5 100.5t103.5 37q63 0 100 -37t37 -100q0 -61 -37 -99t-100 -38q-66 0 -102.5 36.5t-36.5 100z" />
<glyph unicode="&#xf7;" horiz-adv-x="1220" d="M92 616v226h1036v-226h-1036zM428 293q0 72 55.5 128t127 56t127 -56t55.5 -128t-55.5 -128t-127 -56t-127 56t-55.5 128zM428 1163.5q0 71.5 55.5 128t127 56.5t127 -56.5t55.5 -128t-55.5 -128t-127 -56.5t-127 56.5t-55.5 128z" />
<glyph unicode="&#xf8;" horiz-adv-x="1249" d="M72 569q0 254 159.5 428t393.5 174q141 0 262 -69l63 88l158 -111l-74 -102q143 -174 144 -408q0 -260 -148.5 -427t-404.5 -167q-154 0 -275 64l-59 -82l-152 115l66 88q-133 158 -133 409zM315 569q0 -121 41 -200l398 549q-61 32 -129 32q-137 0 -223.5 -113.5 t-86.5 -267.5zM489 231q55 -29 136 -28q143 0 226 102.5t83 263.5q0 111 -47 205z" />
<glyph unicode="&#xf9;" horiz-adv-x="1177" d="M113 383v764h245v-690q0 -127 42 -190.5t139 -63.5q115 0 187.5 93t72.5 245v606h245v-1147h-198l-27 152h-6q-39 -80 -123 -128.5t-196 -48.5q-182 0 -281.5 114t-99.5 294zM219 1542h330l143 -262h-231z" />
<glyph unicode="&#xfa;" horiz-adv-x="1177" d="M113 383v764h245v-690q0 -127 42 -190.5t139 -63.5q115 0 187.5 93t72.5 245v606h245v-1147h-198l-27 152h-6q-39 -80 -123 -128.5t-196 -48.5q-182 0 -281.5 114t-99.5 294zM473 1280l143 262h330l-241 -262h-232z" />
<glyph unicode="&#xfb;" horiz-adv-x="1177" d="M113 383v764h245v-690q0 -127 42 -190.5t139 -63.5q115 0 187.5 93t72.5 245v606h245v-1147h-198l-27 152h-6q-39 -80 -123 -128.5t-196 -48.5q-182 0 -281.5 114t-99.5 294zM238 1280l190 262h328l188 -262h-237l-113 174h-6l-113 -174h-237z" />
<glyph unicode="&#xfc;" horiz-adv-x="1177" d="M113 383v764h245v-690q0 -127 42 -190.5t139 -63.5q115 0 187.5 93t72.5 245v606h245v-1147h-198l-27 152h-6q-39 -80 -123 -128.5t-196 -48.5q-182 0 -281.5 114t-99.5 294zM233 1405q0 63 37 100t105 37q63 0 100 -37t37 -100q0 -61 -37 -99t-100 -38q-68 0 -105 37.5 t-37 99.5zM670 1404.5q0 63.5 35.5 100.5t103.5 37q63 0 100 -37t37 -100q0 -61 -37 -99t-100 -38q-66 0 -102.5 36.5t-36.5 100z" />
<glyph unicode="&#xfd;" horiz-adv-x="1099" d="M31 1147h272l258 -768h2l238 768h268l-524 -1526h-273l162 467zM434 1280l144 262h329l-241 -262h-232z" />
<glyph unicode="&#xfe;" horiz-adv-x="1263" d="M133 -379v1919h250v-532h6q37 68 121 115.5t192 47.5q213 0 351.5 -172t138.5 -430q0 -262 -131 -428t-359 -166q-102 0 -185 43t-130 111h-8v-508h-246zM369 565q0 -164 80.5 -262t214.5 -98q135 0 208.5 100.5t73.5 264t-74.5 270t-209.5 106.5q-137 0 -215 -104.5 t-78 -276.5z" />
<glyph unicode="&#xff;" horiz-adv-x="1099" d="M31 1147h272l258 -768h2l238 768h268l-524 -1526h-273l162 467zM195 1405q0 63 36.5 100t104.5 37q63 0 100 -37t37 -100q0 -61 -37 -99t-100 -38q-66 0 -103.5 37.5t-37.5 99.5zM631 1404.5q0 63.5 35.5 100.5t103.5 37q63 0 100 -37t37 -100q0 -61 -36.5 -99 t-100.5 -38q-66 0 -102.5 36.5t-36.5 100z" />
<glyph unicode="&#x152;" horiz-adv-x="1802" d="M82 713q0 147 43 280t124 237.5t208.5 166t283.5 61.5q96 0 170 -24h779v-240h-574v-360h574v-224h-574v-368h574v-242h-758q-86 -25 -191 -25q-166 0 -294 59.5t-206.5 164t-118.5 234.5t-40 280zM344 713q0 -217 104.5 -353.5t292.5 -136.5q80 0 129 21v944 q-59 24 -129 24q-197 0 -297 -138t-100 -361z" />
<glyph unicode="&#x153;" horiz-adv-x="2043" d="M72 569q0 254 159.5 428t393.5 174q252 0 415 -204q156 204 408 204q225 0 374.5 -164.5t149.5 -424.5l-2 -82h-811q4 -129 89 -215t218 -86q106 0 195.5 58t136.5 134h10l109 -215q-53 -76 -175 -138.5t-276 -62.5q-272 0 -422 189q-152 -188 -419 -189 q-256 0 -404.5 166t-148.5 428zM313 569q0 -166 83 -267t228.5 -101t228.5 102.5t83 267.5q0 156 -86 267.5t-225.5 111.5t-225.5 -113.5t-86 -267.5zM1165 688h559q-4 106 -78.5 185t-197.5 79q-119 0 -193.5 -79.5t-89.5 -184.5z" />
<glyph unicode="&#x178;" horiz-adv-x="1198" d="M10 1434h299l289 -625l291 625h299l-459 -897v-537h-258v537zM244 1685.5q0 63.5 36.5 100.5t104.5 37q63 0 100 -37t37 -100q0 -61 -36.5 -99.5t-100.5 -38.5q-66 0 -103.5 37t-37.5 100.5zM680 1685.5q0 63.5 35.5 100.5t103.5 37q63 0 100 -37t37 -100 q0 -61 -36.5 -99.5t-100.5 -38.5q-66 0 -102.5 37t-36.5 100.5z" />
<glyph unicode="&#x2c6;" horiz-adv-x="890" d="M92 1280l191 262h327l189 -262h-238l-112 174h-7l-112 -174h-238z" />
<glyph unicode="&#x2dc;" horiz-adv-x="825" d="M92 1280q8 111 56.5 187.5t134.5 76.5q61 0 146 -39t114 -39q57 0 73 68h117q-8 -111 -56 -187.5t-134 -76.5q-61 0 -147.5 39t-114.5 39q-57 0 -74 -68h-115z" />
<glyph unicode="&#x2000;" horiz-adv-x="1002" />
<glyph unicode="&#x2001;" horiz-adv-x="2005" />
<glyph unicode="&#x2002;" horiz-adv-x="1002" />
<glyph unicode="&#x2003;" horiz-adv-x="2005" />
<glyph unicode="&#x2004;" horiz-adv-x="668" />
<glyph unicode="&#x2005;" horiz-adv-x="501" />
<glyph unicode="&#x2006;" horiz-adv-x="334" />
<glyph unicode="&#x2007;" horiz-adv-x="334" />
<glyph unicode="&#x2008;" horiz-adv-x="250" />
<glyph unicode="&#x2009;" horiz-adv-x="401" />
<glyph unicode="&#x200a;" horiz-adv-x="111" />
<glyph unicode="&#x2010;" horiz-adv-x="788" d="M92 532v226h604v-226h-604z" />
<glyph unicode="&#x2011;" horiz-adv-x="788" d="M92 532v226h604v-226h-604z" />
<glyph unicode="&#x2012;" horiz-adv-x="788" d="M92 532v226h604v-226h-604z" />
<glyph unicode="&#x2013;" horiz-adv-x="1208" d="M92 532v226h1024v-226h-1024z" />
<glyph unicode="&#x2014;" horiz-adv-x="1824" d="M92 532v226h1641v-226h-1641z" />
<glyph unicode="&#x2018;" horiz-adv-x="520" d="M92 1108q0 160 166 326h100v-11q-31 -41 -55 -96t-27 -94q66 0 109 -42t43 -108q0 -72 -44 -116.5t-120 -44.5q-80 0 -126 51t-46 135z" />
<glyph unicode="&#x2019;" horiz-adv-x="520" d="M92 1284q0 72 44 117t120 45q80 0 126 -51.5t46 -134.5q0 -160 -166 -326h-100v10q76 100 82 193q-66 0 -109 42t-43 105z" />
<glyph unicode="&#x201a;" horiz-adv-x="520" d="M92 150q0 72 45 115.5t119 43.5q80 0 126 -50t46 -134q0 -162 -166 -328h-100v13q76 100 82 190q-66 0 -109 42t-43 108z" />
<glyph unicode="&#x201c;" horiz-adv-x="940" d="M92 1108q0 160 166 326h100v-11q-31 -41 -55 -96t-27 -94q66 0 109 -42t43 -108q0 -72 -44 -116.5t-120 -44.5q-80 0 -126 51t-46 135zM512 1108q0 160 166 326h100v-11q-31 -41 -55.5 -96t-26.5 -94q66 0 109 -42t43 -108q0 -72 -45 -116.5t-119 -44.5q-80 0 -126 51 t-46 135z" />
<glyph unicode="&#x201d;" horiz-adv-x="940" d="M92 1286q0 72 44 117t118 45q80 0 127 -50t47 -136q0 -160 -166 -326h-100v10q72 96 82 193q-66 0 -109 42t-43 105zM512 1286q0 72 44 117t118 45q80 0 127 -50t47 -136q0 -160 -166 -326h-100v10q72 96 82 193q-66 0 -109 42t-43 105z" />
<glyph unicode="&#x201e;" horiz-adv-x="940" d="M92 150q0 72 44 115.5t118 43.5q80 0 127 -50t47 -134q0 -86 -50 -174t-116 -152h-100v11q72 96 82 190q-66 0 -109 42t-43 108zM512 150q0 72 44 115.5t118 43.5q80 0 127 -50t47 -134q0 -86 -50 -174t-116 -152h-100v11q72 96 82 190q-66 0 -109 42t-43 108z" />
<glyph unicode="&#x2022;" horiz-adv-x="645" d="M92 668q0 94 68 161.5t164 67.5q94 0 161.5 -67.5t67.5 -161.5q0 -96 -66.5 -164t-163 -68t-164 67.5t-67.5 164.5z" />
<glyph unicode="&#x2026;" horiz-adv-x="1742" d="M92 168q0 80 48 129t134 49q84 0 131.5 -49t47.5 -129q0 -82 -47.5 -131t-131.5 -49q-86 0 -134 49t-48 131zM692 168q0 80 48 129t134 49q84 0 131.5 -49t47.5 -129q0 -82 -47.5 -131t-131.5 -49q-86 0 -134 49t-48 131zM1290 168q0 80 48.5 129t134.5 49q84 0 131 -49 t47 -129q0 -82 -47.5 -131t-130.5 -49q-86 0 -134.5 49t-48.5 131z" />
<glyph unicode="&#x202f;" horiz-adv-x="401" />
<glyph unicode="&#x2039;" horiz-adv-x="663" d="M92 567l227 426h252l-196 -426l196 -426h-252z" />
<glyph unicode="&#x203a;" horiz-adv-x="663" d="M92 141l197 426l-197 426h252l227 -426l-227 -426h-252z" />
<glyph unicode="&#x205f;" horiz-adv-x="501" />
<glyph unicode="&#x20ac;" horiz-adv-x="1603" d="M92 483v185h178q-4 66 4 129h-182v184h217q70 211 233 344t382 133q201 0 338 -100.5t198 -229.5l-176 -182h-12q-115 283 -348 283q-117 0 -208 -67.5t-138 -180.5h448v-184h-496q-10 -72 -2 -129h498v-185h-467q37 -121 133 -194.5t228 -73.5q158 0 245.5 100.5 t122.5 241.5h12l211 -164q-18 -61 -56 -123.5t-105.5 -133t-181 -116t-253.5 -45.5q-254 0 -411.5 139.5t-210.5 368.5h-201z" />
<glyph unicode="&#x2122;" horiz-adv-x="1986" d="M51 1251v183h629v-183h-213v-575h-205v575h-211zM793 678v756h337l168 -547h2l166 547h336v-756h-200v596h-3l-184 -596h-233l-187 596h-2v-596h-200z" />
<glyph unicode="&#x25fc;" horiz-adv-x="1146" d="M0 0v1147h1147v-1147h-1147z" />
<glyph unicode="&#xfb03;" horiz-adv-x="2029" d="M10 922v225h226v209q0 150 78.5 223.5t197.5 73.5q88 0 164 -33t110 -70l-53 -233h-12q-72 88 -162 88q-78 0 -78 -82v-176h226v-225h-226v-922h-245v922h-226zM778 922v225h203v221q0 141 77.5 213t194.5 72q135 0 232 -72l-51 -231h-13q-47 55 -116 55q-78 0 -78 -86 v-172h248v-225h-248v-922h-246v922h-203zM1589 1435.5q0 73.5 44 117.5t122 44q76 0 119 -44t43 -117.5t-43 -117.5t-119 -44q-78 0 -122 44t-44 117.5zM1630 0v1147h246v-1147h-246z" />
<glyph unicode="&#xfb04;" horiz-adv-x="2009" d="M10 922v225h226v209q0 150 78.5 223.5t197.5 73.5q88 0 164 -33t110 -70l-53 -233h-12q-72 88 -162 88q-78 0 -78 -82v-176h226v-225h-226v-922h-245v922h-226zM778 922v225h203v221q0 141 77.5 213t194.5 72q135 0 232 -72l-51 -231h-13q-47 55 -116 55q-78 0 -78 -86 v-172h248v-225h-248v-922h-246v922h-203zM1630 0v1520h246v-1520h-246z" />
</font>
</defs>
</svg>
