<?xml version="1.0" standalone="no"?>
<!DOCTYPE svg PUBLIC "-//W3C//DTD SVG 1.1//EN" "http://www.w3.org/Graphics/SVG/1.1/DTD/svg11.dtd" >
<svg xmlns="http://www.w3.org/2000/svg">
<metadata></metadata>
<defs>
<font id="patronlight" horiz-adv-x="1196" >
<font-face units-per-em="2048" ascent="1669" descent="-379" />
<missing-glyph horiz-adv-x="524" />
<glyph unicode="&#xfb01;" horiz-adv-x="1191" d="M33 1008v139h211v237q0 102 65.5 163t165.5 61q117 0 193 -68l-31 -145h-8q-55 59 -135 59q-96 0 -97 -100v-207h260v-139h-260v-1008h-153v1008h-211zM793 1405q0 57 31.5 90t90.5 33q57 0 89 -34t32 -89t-31.5 -88t-89.5 -33q-59 0 -90.5 33t-31.5 88zM838 0v1147h153 v-1147h-153z" />
<glyph unicode="&#xfb02;" horiz-adv-x="1146" d="M33 1008v139h211v237q0 102 65.5 163t165.5 61q117 0 193 -68l-31 -145h-8q-55 59 -135 59q-96 0 -97 -100v-207h260v-139h-260v-1008h-153v1008h-211zM838 0v1522h153v-1522h-153z" />
<glyph horiz-adv-x="0" />
<glyph horiz-adv-x="682" />
<glyph unicode="&#xd;" horiz-adv-x="681" />
<glyph unicode=" "  horiz-adv-x="524" />
<glyph unicode="&#x09;" horiz-adv-x="524" />
<glyph unicode="&#xa0;" horiz-adv-x="524" />
<glyph unicode="!" horiz-adv-x="614" d="M176 119q0 59 35 95t96 36q63 0 98 -36t35 -95.5t-34.5 -95t-98.5 -35.5q-61 0 -96 36.5t-35 94.5zM219 985v449h176v-449l-30 -604h-117z" />
<glyph unicode="&#x22;" horiz-adv-x="669" d="M115 1434h157l-32 -459h-95zM399 1434h158l-33 -459h-94z" />
<glyph unicode="#" horiz-adv-x="1312" d="M115 498v131h268l43 332h-250v131h266l45 342h138l-43 -342h219l45 342h139l-45 -342h258v-131h-274l-43 -332h256v-131h-275l-45 -359h-137l45 359h-219l-47 -359h-137l45 359h-252zM522 629h219l45 332h-221z" />
<glyph unicode="$" horiz-adv-x="1320" d="M115 266l84 156h6q154 -233 377 -285v557q-225 80 -319.5 166t-94.5 230q0 158 114.5 260t299.5 108v205h145v-213q246 -45 387 -256l-90 -145h-6q-115 199 -291 247v-487q254 -100 356.5 -189.5t102.5 -252.5q0 -178 -124 -282.5t-335 -109.5v-221h-145v226 q-166 27 -286 108.5t-181 177.5zM328 1094q0 -78 51 -128.5t203 -107.5v453q-123 -6 -188.5 -66.5t-65.5 -150.5zM727 127q143 4 222 67.5t79 165.5q0 96 -67.5 160t-233.5 127v-520z" />
<glyph unicode="%" horiz-adv-x="1896" />
<glyph unicode="&#x26;" horiz-adv-x="1245" d="M135 336q0 131 74 233.5t199 200.5q-88 102 -134.5 185t-46.5 186q0 139 94 228t244 89q145 0 238.5 -87t93.5 -212q0 -45 -13.5 -88t-27.5 -71.5t-49 -69.5t-52.5 -58.5t-66.5 -61.5t-63 -58l282 -344l107 157h6l94 -114l-113 -160l193 -230l-113 -94l-168 205 q-154 -197 -397 -197q-156 0 -268.5 92.5t-112.5 268.5zM291 344q0 -113 71.5 -166t165.5 -53q181 0 287 160l-313 381q-66 -55 -101.5 -92t-72.5 -100.5t-37 -129.5zM381 1135q0 -16 2 -33t5 -30t10.5 -29.5t12.5 -26.5t16 -27.5t17.5 -26t19.5 -26.5t19 -25.5t21.5 -27 t21.5 -25.5q12 10 54.5 47t63 56.5t49 53.5t42 67.5t13.5 68.5q0 78 -53.5 123t-129.5 45q-78 0 -131 -47t-53 -137z" />
<glyph unicode="'" horiz-adv-x="385" d="M115 1434h157l-32 -459h-95z" />
<glyph unicode="(" horiz-adv-x="638" d="M156 606q0 152 27.5 305.5t67.5 264t80 198.5t66 133l29 45h139q-10 -16 -26.5 -46.5t-59.5 -129t-76.5 -203t-60.5 -260t-27 -307.5q0 -160 23.5 -312.5t57.5 -257t68 -185t56 -119.5l25 -39h-154q-10 12 -25.5 36.5t-56.5 110.5t-71.5 184.5t-56 256t-25.5 325.5z" />
<glyph unicode=")" horiz-adv-x="638" d="M74 1552h139q10 -16 28.5 -46.5t65.5 -129t82 -203t64.5 -260t29.5 -307.5q0 -168 -24.5 -324.5t-58 -259t-68.5 -180.5t-60 -112l-24 -37h-154q10 14 25.5 40.5t54.5 116t69.5 188.5t55.5 253.5t25 314.5q0 152 -26 305.5t-62.5 264t-73.5 198.5t-64 133z" />
<glyph unicode="*" horiz-adv-x="921" d="M115 1124l73 174l240 -161l-63 297h188l-61 -297l241 161l74 -174l-301 -47l246 -225l-144 -123l-147 277l-148 -277l-143 123l246 225z" />
<glyph unicode="+" horiz-adv-x="1175" d="M115 659v140h399v399h148v-399h399v-140h-399v-460h-148v460h-399z" />
<glyph unicode="," horiz-adv-x="512" d="M115 127q0 61 37 97t100 36q68 0 106.5 -44t38.5 -118q0 -143 -133 -284h-90v6q70 96 70 180q-61 0 -95 36t-34 91z" />
<glyph unicode="-" horiz-adv-x="831" d="M115 575v140h604v-140h-604z" />
<glyph unicode="." horiz-adv-x="505" d="M115 127q0 61 35.5 99t101 38t102.5 -38t37 -99q0 -63 -37 -101t-102.5 -38t-101 37.5t-35.5 101.5z" />
<glyph unicode="/" horiz-adv-x="1015" d="M33 -145l823 1804l127 -60l-821 -1804z" />
<glyph unicode="0" horiz-adv-x="1345" d="M115 698q0 326 147.5 543t411.5 217t411.5 -217t147.5 -543q0 -102 -14.5 -197t-54.5 -192.5t-100 -169t-160.5 -118t-229.5 -46.5t-229.5 46.5t-161 118t-100.5 169t-54 192.5t-14 197zM272 698q0 -106 19.5 -200.5t61.5 -181.5t125 -138t195.5 -51t194.5 51t124 138 t61.5 181.5t19.5 200.5q0 166 -39 299t-132 223.5t-228 90.5t-229.5 -90.5t-133.5 -223.5t-39 -299z" />
<glyph unicode="1" horiz-adv-x="780" d="M2 1010l404 424h159v-1434h-153v1227h-6l-297 -326z" />
<glyph unicode="2" horiz-adv-x="1071" d="M74 1073q25 143 148.5 264t324.5 121q203 0 320.5 -119.5t117.5 -296.5q0 -76 -26.5 -150.5t-63.5 -135t-127 -155.5t-160.5 -162.5t-222.5 -209.5l-86 -79h700v-150h-897l2 168l242 231q281 266 342 338q141 164 143 301q0 119 -73.5 200t-212.5 81 q-145 0 -235.5 -101.5t-119.5 -252.5h-6z" />
<glyph unicode="3" horiz-adv-x="1202" d="M74 319l106 115h6q47 -131 150.5 -224t259.5 -93q160 0 251 90t91 235q0 152 -92 245t-254 93q-115 0 -203 -39l-86 125l524 428h-628v140h831v-131l-498 -414l3 -4q35 14 98 14q190 0 323.5 -123t133.5 -338t-139.5 -339t-354.5 -124q-203 0 -339 110t-183 234z" />
<glyph unicode="4" horiz-adv-x="1236" d="M94 287v127l629 1020h242v-1008h139v-139h-133v-287h-160v287h-717zM266 426h545v881h-4z" />
<glyph unicode="5" horiz-adv-x="1224" d="M104 324l107 110h6q45 -133 151.5 -225t270.5 -92q152 0 248 99t96 253t-98.5 249t-257.5 95q-156 0 -305 -100l-142 55v666h807v-140h-663v-442l4 -2q137 92 315 92q209 0 350.5 -130t141.5 -345q0 -219 -139.5 -355.5t-356.5 -136.5q-113 0 -210 34t-160.5 89.5 t-103.5 111.5t-61 114z" />
<glyph unicode="6" horiz-adv-x="1243" d="M115 690q0 340 154.5 554t408.5 214q139 0 247.5 -68.5t157.5 -162.5l-86 -131h-6q-47 100 -130 161.5t-191 61.5q-188 0 -294 -175t-106 -437l4 -2q49 94 153.5 158.5t246.5 64.5q190 0 328.5 -127t138.5 -350q0 -217 -131 -346.5t-344 -129.5q-250 0 -400.5 178.5 t-150.5 536.5zM326 455q0 -135 89 -235.5t249 -100.5q150 0 236.5 91t86.5 242.5t-90 246t-231 94.5q-152 0 -246 -99.5t-94 -238.5z" />
<glyph unicode="7" horiz-adv-x="1009" d="M72 0l700 1280h-698v154h862v-152l-690 -1282h-174z" />
<glyph unicode="8" horiz-adv-x="1175" d="M135 371q0 127 69.5 224t180.5 136v2q-104 39 -161.5 129t-57.5 201q0 162 116.5 278.5t305 116.5t306.5 -116.5t118 -278.5q0 -111 -56.5 -200t-158.5 -128v-4q111 -39 178 -136t67 -224q0 -190 -131 -293t-323.5 -103t-322.5 102.5t-130 293.5zM291 383 q0 -119 83 -189.5t214 -70.5q133 0 215 70.5t82 189.5q0 121 -80 198.5t-217 77.5t-217 -77.5t-80 -198.5zM319 1059q0 -111 74 -183.5t195 -72.5q123 0 196.5 72.5t73.5 183.5q0 113 -76.5 187.5t-193.5 74.5t-193 -73.5t-76 -188.5z" />
<glyph unicode="9" horiz-adv-x="1216" d="M104 961q0 221 137.5 359t340.5 138q100 0 188 -39t165 -122t122 -234.5t45 -355.5q0 -371 -132 -551.5t-360 -180.5q-285 0 -430 199l76 137h8q127 -193 332 -192q158 0 253 134t97 421h-4q-43 -84 -144.5 -140.5t-240.5 -56.5q-215 0 -334 141.5t-119 342.5zM258 963 q0 -150 83 -248.5t228 -98.5q170 0 252 98.5t82 248.5q0 143 -84.5 249.5t-240.5 106.5q-158 0 -239 -105.5t-81 -250.5z" />
<glyph unicode=":" horiz-adv-x="546" d="M135 127q0 61 36 99t101.5 38t102.5 -38t37 -99q0 -63 -37 -101t-102.5 -38t-101.5 37.5t-36 101.5zM135 856q0 61 36 99t101.5 38t102.5 -37.5t37 -99.5q0 -63 -37 -101t-102.5 -38t-101.5 38t-36 101z" />
<glyph unicode=";" horiz-adv-x="550" d="M135 856q0 61 36 99t101.5 38t102.5 -37.5t37 -99.5q0 -63 -37 -101t-102.5 -38t-101.5 38t-36 101zM141 119q0 61 37.5 97t100.5 36q66 0 103.5 -44t37.5 -116q0 -139 -131 -278h-88v6q27 35 47 87t20 89q-57 0 -92 35t-35 88z" />
<glyph unicode="&#x3c;" d="M115 655v142l966 422v-158l-774 -336l774 -334v-158z" />
<glyph unicode="=" d="M115 463v143h966v-143h-966zM115 838v143h966v-143h-966z" />
<glyph unicode="&#x3e;" d="M115 233v158l774 334l-774 336v158l966 -422v-142z" />
<glyph unicode="?" horiz-adv-x="1054" d="M156 1223q47 92 155.5 163.5t253.5 71.5q156 0 251 -86t95 -209q0 -113 -63.5 -174t-235.5 -149q-141 -74 -185 -112t-44 -85t34 -72.5t89 -25.5q57 0 130 40t118 107h6l82 -127q-45 -66 -142.5 -117t-207.5 -51q-121 0 -196 64.5t-75 175.5q0 98 64.5 164.5t216.5 144.5 q162 82 205 119t43 100q0 61 -50.5 101.5t-132.5 40.5q-98 0 -180 -59.5t-129 -160.5h-6zM418 114.5q0 57.5 34 93.5t93 36q61 0 96 -36t35 -93.5t-35 -92t-96 -34.5q-59 0 -93 34.5t-34 92z" />
<glyph unicode="@" horiz-adv-x="1583" d="M115 565q0 322 198.5 536t499.5 214q291 0 474 -198.5t183 -493.5q0 -217 -83.5 -316.5t-210.5 -99.5q-145 0 -197 108h-4q-57 -109 -213 -108q-131 0 -212 101.5t-81 260.5q0 158 86 262.5t217 104.5q59 0 107.5 -23.5t68.5 -60.5h4l15 68h106v-441q0 -78 21.5 -108.5 t72.5 -30.5q160 0 160 283q0 244 -141.5 402.5t-372.5 158.5q-240 0 -398.5 -177.5t-158.5 -441.5q0 -262 146.5 -429t398.5 -167q170 0 315 92h6l43 -135q-166 -94 -364 -94q-324 0 -505 203t-181 530zM608 571q0 -98 41 -164.5t121 -66.5q88 0 130 63.5t42 169.5 q0 102 -42 170t-124 68t-125 -71.5t-43 -168.5z" />
<glyph unicode="A" horiz-adv-x="1339" d="M43 0l506 1434h242l505 -1434h-174l-149 438h-606l-150 -438h-174zM410 578h518l-256 725h-6z" />
<glyph unicode="B" horiz-adv-x="1261" d="M176 0v1434h549q211 0 322.5 -96.5t111.5 -272.5q0 -233 -225 -330v-4q225 -86 225 -348q0 -74 -23.5 -138.5t-75.5 -121.5t-150.5 -90t-235.5 -33h-498zM340 150h340q315 0 315 253q0 252 -297 252h-358v-505zM340 801h354q133 0 216 67.5t83 184.5q0 109 -68.5 170 t-211.5 61h-373v-483z" />
<glyph unicode="C" horiz-adv-x="1349" d="M104 723q0 188 75 355t221.5 273.5t330.5 106.5q203 0 338 -107.5t199 -258.5l-121 -113h-8q-135 330 -408 330q-211 0 -337 -176.5t-126 -409.5q0 -272 123 -433t342 -161q170 0 281.5 110.5t146.5 288.5h10l138 -106q-63 -213 -213 -330t-365 -117q-291 0 -459 195 t-168 553z" />
<glyph unicode="D" horiz-adv-x="1374" d="M184 0v1434h408q354 0 517 -170t163 -541t-171 -547t-526 -176h-391zM348 150h242q276 0 397 146t121 427q0 291 -111.5 426t-396.5 135h-252v-1134z" />
<glyph unicode="E" horiz-adv-x="1134" d="M176 0v1434h825v-150h-661v-489h661v-140h-661v-505h661v-150h-825z" />
<glyph unicode="F" horiz-adv-x="1155" d="M176 0v1434h866v-150h-702v-504h694v-141h-694v-639h-164z" />
<glyph unicode="G" horiz-adv-x="1376" d="M104 723q0 188 75 355t221.5 273.5t330.5 106.5q203 0 338 -107.5t199 -258.5l-121 -113h-8q-133 334 -408 334q-211 0 -337 -178.5t-126 -411.5q0 -272 123 -433t342 -161q135 0 237.5 54.5t153.5 125.5v203h-295v139h445v-651h-98l-54 137h-4q-145 -162 -393 -162 q-287 0 -454 195t-167 553z" />
<glyph unicode="H" horiz-adv-x="1347" d="M176 0v1434h164v-635h670v635h164v-1434h-164v662h-670v-662h-164z" />
<glyph unicode="I" horiz-adv-x="514" d="M176 0v1434h164v-1434h-164z" />
<glyph unicode="J" horiz-adv-x="954" d="M33 219l100 129h8q100 -215 269 -215q106 0 165.5 65.5t59.5 200.5v1035h166v-1067q0 -176 -102.5 -284t-284.5 -108q-141 0 -237.5 73t-143.5 171z" />
<glyph unicode="K" horiz-adv-x="1181" d="M176 0v1434h162v-660h4l565 660h209l-610 -701l643 -733h-219l-588 680h-4v-680h-162z" />
<glyph unicode="L" horiz-adv-x="970" d="M176 0v1434h164v-1287h578v-147h-742z" />
<glyph unicode="M" horiz-adv-x="1746" d="M176 0v1434h270l424 -1213h7l421 1213h273v-1434h-156v1286h-4l-446 -1286h-183l-446 1286h-4v-1286h-156z" />
<glyph unicode="N" horiz-adv-x="1406" d="M176 0v1434h252l639 -1284h4v1284h162v-1434h-254l-639 1284h-4v-1284h-160z" />
<glyph unicode="O" horiz-adv-x="1464" d="M104 723q0 293 176.5 514t450.5 221q184 0 330.5 -106.5t222.5 -273.5t76 -355q0 -358 -168 -553t-461 -195q-291 0 -459 195t-168 553zM268 723q0 -270 122 -432t341 -162t342 161t123 433q0 152 -52 284t-161 219t-252 87q-213 0 -338 -177.5t-125 -412.5z" />
<glyph unicode="P" horiz-adv-x="1234" d="M176 0v1434h533q454 0 454 -410q0 -214 -134 -318t-347 -104h-342v-602h-164zM340 752h313q346 0 346 270q0 139 -69.5 200.5t-239.5 61.5h-350v-532z" />
<glyph unicode="Q" horiz-adv-x="1492" d="M104 723q0 293 176.5 514t450.5 221q184 0 330.5 -106.5t222.5 -273.5t76 -355q0 -283 -123 -477l193 -238v-8h-177l-110 133q-164 -158 -412 -158q-291 0 -459 195t-168 553zM268 723q0 -270 122 -432t341 -162q193 0 313 127l-358 440l113 95l327 -410q70 145 70 342 q0 152 -52 284t-161 219t-252 87q-213 0 -338 -177.5t-125 -412.5z" />
<glyph unicode="R" horiz-adv-x="1288" d="M176 0v1434h539q448 0 448 -388q-1 -184 -123 -284t-350 -107l465 -655h-203l-450 653h-162v-653h-164zM340 797h315q344 0 344 247q0 129 -71.5 184.5t-237.5 55.5h-350v-487z" />
<glyph unicode="S" horiz-adv-x="1230" d="M74 270l88 150h8q188 -291 475 -291q164 0 247 65.5t83 184.5q0 115 -90 172t-326 123q-219 61 -325.5 152.5t-106.5 246.5q0 168 121.5 276.5t320.5 108.5q162 0 296 -77.5t200 -190.5l-88 -143h-10q-59 109 -164 185.5t-230 76.5q-137 0 -209.5 -66.5t-72.5 -165.5 q0 -100 75.5 -156.5t307.5 -121.5q233 -66 348 -154t115 -262q0 -195 -130 -301.5t-358 -106.5q-197 0 -348 88.5t-227 206.5z" />
<glyph unicode="T" horiz-adv-x="1134" d="M53 1284v150h1030v-150h-436v-1284h-164v1284h-430z" />
<glyph unicode="U" horiz-adv-x="1384" d="M156 528v906h163v-891q0 -201 95.5 -308.5t280 -107.5t277.5 107.5t93 308.5v891h164v-906q0 -254 -134 -403.5t-401 -149.5q-268 0 -403 149.5t-135 403.5z" />
<glyph unicode="V" horiz-adv-x="1249" d="M43 1434h172l408 -1270h4l407 1270h172l-467 -1434h-229z" />
<glyph unicode="W" horiz-adv-x="1964" d="M74 1434h174l305 -1252h4l307 1252h236l307 -1252h4l305 1252h174l-372 -1434h-226l-309 1251h-4l-309 -1251h-224z" />
<glyph unicode="X" horiz-adv-x="1148" d="M43 0l432 735l-414 699h185l325 -566l320 566h186l-407 -699l436 -735h-186l-349 604l-342 -604h-186z" />
<glyph unicode="Y" horiz-adv-x="1116" d="M33 1434h180l344 -719l346 719h180l-444 -893v-541h-162v541z" />
<glyph unicode="Z" horiz-adv-x="1077" d="M74 0v158l757 1126h-739v150h914v-156l-756 -1128h735v-150h-911z" />
<glyph unicode="[" horiz-adv-x="514" d="M156 -455v2048h286v-143h-139v-1761h139v-144h-286z" />
<glyph unicode="\" horiz-adv-x="1015" d="M33 1599l127 60l823 -1804l-129 -60z" />
<glyph unicode="]" horiz-adv-x="514" d="M74 -311h137v1761h-137v143h286v-2048h-286v144z" />
<glyph unicode="^" horiz-adv-x="1124" d="M115 672l374 762h148l375 -760h-162l-287 602l-289 -604h-159z" />
<glyph unicode="_" horiz-adv-x="1112" d="M115 -147h884v-140h-884v140z" />
<glyph unicode="`" horiz-adv-x="616" d="M115 1497h260l129 -217h-182z" />
<glyph unicode="a" horiz-adv-x="1073" d="M104 920q61 111 179.5 181t265.5 70q176 0 283.5 -90t107.5 -241v-840h-131l-23 152h-4q-121 -176 -350 -177q-152 0 -239 86t-87 228q0 135 84 224t281 128q195 41 255 88t60 125q0 82 -61 130t-176 48q-117 0 -206 -64.5t-138 -179.5h-6zM256 293q0 -78 50 -127 t138 -49q127 0 234.5 78.5t107.5 191.5v250h-4q-23 -39 -79 -65.5t-195 -59.5q-141 -33 -196.5 -85t-55.5 -134z" />
<glyph unicode="b" horiz-adv-x="1263" d="M156 0v1520h153v-529h4q49 76 143.5 128t215.5 52q215 0 356 -176t141 -432q0 -262 -130 -425t-363 -163q-238 0 -361 177h-4l-20 -152h-135zM307 567q0 -207 94.5 -326.5t262 -119.5t260 122t92.5 320.5t-94.5 333.5t-260 135t-260 -127t-94.5 -338z" />
<glyph unicode="c" horiz-adv-x="1142" d="M94 563q0 258 150 433t379 175q162 0 280.5 -89t165.5 -199l-106 -113h-7q-100 262 -335 262q-172 0 -272.5 -137t-100.5 -332q0 -199 98 -320.5t277 -121.5q145 0 232 85t116 214h8l121 -101q-49 -154 -172 -249t-305 -95q-250 0 -389.5 162t-139.5 426z" />
<glyph unicode="d" horiz-adv-x="1263" d="M94 563q0 256 141.5 432t356.5 176q121 0 214 -52t144 -128h4v529h154v-1520h-135l-21 152h-6q-119 -176 -358 -177q-233 0 -363.5 163t-130.5 425zM248 563.5q0 -198.5 92 -320.5t260 -122t262 119.5t94 326.5q0 211 -95 338t-259 127q-166 0 -260 -135t-94 -333.5z" />
<glyph unicode="e" d="M94 578q0 256 149.5 424.5t364.5 168.5t355.5 -158.5t140.5 -422.5l-2 -68h-856q10 -182 110.5 -291.5t264.5 -109.5q223 0 362 215h6l78 -143q-68 -96 -186.5 -157t-257.5 -61q-256 0 -392.5 165t-136.5 438zM252 657h698q-10 180 -104 277.5t-237.5 97.5t-242 -106.5 t-114.5 -268.5z" />
<glyph unicode="f" horiz-adv-x="729" d="M33 1008v139h211v215q0 119 66.5 182.5t168.5 63.5q76 0 144.5 -31t105.5 -68l-47 -147h-8q-25 33 -73 62.5t-101 29.5q-102 0 -103 -113v-194h260v-139h-260v-1008h-153v1008h-211z" />
<glyph unicode="g" horiz-adv-x="1222" d="M94 623q0 233 136 390.5t339 157.5q233 0 338 -174h6l19 150h135v-1075q0 -240 -124 -357.5t-337 -117.5q-131 0 -238.5 55t-168.5 129l69 133h6q55 -70 141.5 -123t178.5 -53q162 0 240.5 85t78.5 275v158h-6q-45 -68 -131 -113t-203 -45q-223 0 -351 142.5t-128 382.5z M248 623q0 -168 88 -274.5t242 -106.5q162 0 250 102q85 100 85 283v8q0 176 -86.5 286.5t-240.5 110.5q-164 0 -251 -117.5t-87 -291.5z" />
<glyph unicode="h" horiz-adv-x="1198" d="M156 0v1520h153v-545h4q53 90 146.5 143t212.5 53q190 0 290.5 -117.5t100.5 -303.5v-750h-154v719q0 313 -266 313q-147 0 -240.5 -115.5t-93.5 -316.5v-600h-153z" />
<glyph unicode="i" horiz-adv-x="462" d="M109 1425q0 57 31.5 90t91 33t91 -32.5t31.5 -90.5q0 -55 -31.5 -87.5t-91 -32.5t-91 32.5t-31.5 87.5zM156 0v1147h153v-1147h-153z" />
<glyph unicode="j" horiz-adv-x="440" d="M-80 -293l23 146h6q57 -31 98 -31q84 0 84 80v1245h154v-1247q0 -119 -59.5 -175.5t-149.5 -56.5q-86 0 -156 39zM86 1425q0 57 32 90t91 33t91 -32.5t32 -90.5q0 -55 -32 -87.5t-91 -32.5t-91 32.5t-32 87.5z" />
<glyph unicode="k" horiz-adv-x="980" d="M156 0v1520h153v-922h4l453 549h201l-492 -567l496 -580h-207l-449 545h-4v-545h-155z" />
<glyph unicode="l" horiz-adv-x="462" d="M156 0v1520h153v-1520h-153z" />
<glyph unicode="m" horiz-adv-x="1742" d="M156 0v1147h133l18 -152h4q102 176 318 176q111 0 188.5 -55t108.5 -139h6q45 86 133 140t211 54q156 0 244 -93t88 -261v-817h-154v760q0 272 -215 272q-123 0 -203 -98t-80 -277v-657h-153v760q0 272 -213 272q-123 0 -202 -100.5t-79 -274.5v-657h-153z" />
<glyph unicode="n" horiz-adv-x="1200" d="M156 0v1147h133l18 -158h6q123 182 361 182q188 0 289.5 -118.5t101.5 -302.5v-750h-154v719q0 152 -67.5 232.5t-198.5 80.5q-147 0 -241.5 -114.5t-94.5 -303.5v-614h-153z" />
<glyph unicode="o" horiz-adv-x="1243" d="M94 563q0 256 150.5 432t378 176t378 -177t150.5 -431q0 -262 -139.5 -425t-388.5 -163q-248 0 -388.5 164t-140.5 424zM248 563q0 -199 99 -320.5t276 -121.5q178 0 276 122t98 320q0 197 -101 333t-273 136t-273.5 -137t-101.5 -332z" />
<glyph unicode="p" horiz-adv-x="1253" d="M156 -381v1528h139l20 -158h4q49 78 140.5 130t210.5 52q217 0 354 -175t137 -433q0 -262 -130 -425t-361 -163q-238 0 -357 181h-4v-537h-153zM303 567q0 -203 94.5 -324.5t259.5 -121.5q168 0 259.5 122t91.5 320q0 201 -94.5 335t-256.5 134q-164 0 -259 -130 t-95 -335z" />
<glyph unicode="q" horiz-adv-x="1265" d="M94 563q0 258 136.5 433t353.5 175q119 0 210 -52t140 -130h6l18 158h142v-1528h-154v537h-6q-119 -180 -356 -181q-229 0 -359.5 163t-130.5 425zM248 563q0 -199 90 -320.5t258 -121.5q166 0 261 122t95 324q0 205 -96 335t-260 130q-162 0 -255 -134t-93 -335z" />
<glyph unicode="r" horiz-adv-x="757" d="M156 0v1147h129l20 -152h4q20 57 79 116.5t149 59.5q123 0 186 -71l-33 -164h-6q-68 78 -162 78q-96 0 -154.5 -95.5t-58.5 -275.5v-643h-153z" />
<glyph unicode="s" horiz-adv-x="1075" d="M92 231l88 136h6q145 -248 392 -248q125 0 189 50t64 124q0 82 -63 133t-272 104q-195 49 -279 125t-84 203t100.5 220t274.5 93q156 0 268.5 -68.5t169.5 -156.5l-84 -129h-8q-131 215 -348 215q-109 0 -165 -52t-56 -120q0 -70 60.5 -116t254.5 -97q207 -53 295 -134 t88 -220q0 -141 -112.5 -229.5t-286.5 -88.5q-166 0 -298 76t-194 180z" />
<glyph unicode="t" horiz-adv-x="778" d="M57 1008v96q186 78 246 330h88v-287h330v-139h-330v-756q0 -125 96 -125q66 0 142 51h6l39 -145q-82 -57 -205 -58q-98 0 -164.5 58.5t-66.5 173.5v801h-181z" />
<glyph unicode="u" horiz-adv-x="1136" d="M135 375v772h154v-750q0 -278 233 -278h2q139 0 232.5 99t93.5 259v670h154v-1147h-134l-22 160h-6q-47 -80 -133 -132.5t-201 -52.5q-182 0 -277.5 109t-95.5 291z" />
<glyph unicode="v" horiz-adv-x="1097" d="M43 1147h160l344 -1004h4l344 1004h162l-400 -1147h-217z" />
<glyph unicode="w" horiz-adv-x="1654" d="M63 1147h162l221 -985h5l268 985h215l268 -985h4l224 985h161l-276 -1147h-215l-271 997h-4l-270 -997h-215z" />
<glyph unicode="x" horiz-adv-x="976" d="M43 0l336 580l-332 567h178l260 -471l273 471h178l-342 -565l338 -582h-178l-269 483l-264 -483h-178z" />
<glyph unicode="y" horiz-adv-x="1046" d="M53 1147h174l308 -883h4l282 883h174l-528 -1526h-172l160 455z" />
<glyph unicode="z" horiz-adv-x="1052" d="M135 0v158l615 850h-615v139h780v-154l-616 -854h621v-139h-785z" />
<glyph unicode="{" horiz-adv-x="688" d="M156 508v149q90 0 122.5 26t32.5 103v580q0 123 54.5 177t164.5 54h86v-139h-69q-47 0 -67.5 -23.5t-20.5 -82.5v-582q0 -84 -29 -125t-92 -63v-2q121 -49 121 -189v-596q0 -61 19.5 -84.5t68.5 -23.5h69v-138h-86q-111 0 -165 53.5t-54 176.5v598q0 78 -33.5 104.5 t-121.5 26.5z" />
<glyph unicode="|" horiz-adv-x="575" d="M217 -516v2142h143v-2142h-143z" />
<glyph unicode="}" horiz-adv-x="688" d="M74 -313h67q49 0 68.5 23.5t19.5 84.5v596q0 139 121 189v2q-63 23 -92 63.5t-29 124.5v582q0 59 -20.5 82.5t-67.5 23.5h-67v139h84q111 0 166 -54t55 -177v-580q0 -78 32.5 -103.5t123.5 -25.5v-149q-88 0 -122 -26.5t-34 -104.5v-598q0 -123 -55.5 -176.5 t-165.5 -53.5h-84v138z" />
<glyph unicode="~" horiz-adv-x="1189" d="M115 737q41 70 109.5 115t154.5 45q20 0 37.5 -2t39 -8t33 -10.5t35 -15.5t30.5 -15t34.5 -19.5t32 -17.5t23 -13.5t23.5 -13.5t21.5 -11t22.5 -12t20 -9.5t22.5 -8.5t20.5 -5t22.5 -4t22.5 -1q115 0 187 156h6l65 -142q-41 -70 -110.5 -114.5t-155.5 -44.5 q-16 0 -34.5 2t-31 5t-32 10t-27.5 10t-29.5 14.5t-25.5 13.5t-28.5 17.5t-27.5 15.5q-8 4 -25.5 14t-24.5 14.5t-23.5 12.5t-25.5 12t-23.5 9t-25.5 7t-25.5 4.5t-28.5 2.5q-59 0 -108.5 -45.5t-78.5 -110.5h-8z" />
<glyph unicode="&#xa1;" horiz-adv-x="614" d="M176 1030q0 57 35 94t96 37q63 0 98 -35.5t35 -95t-35 -95.5t-98 -36q-61 0 -96 36t-35 95zM219 164l29 604h117l30 -604v-449h-176v449z" />
<glyph unicode="&#xa2;" horiz-adv-x="1271" d="M135 563q0 231 129 402.5t332 199.5v170h143v-168q143 -18 241.5 -99t141.5 -177l-100 -121h-6q-84 221 -277 256v-899q121 18 194 100t97 193h8l121 -107q-47 -137 -153.5 -227t-266.5 -106v-209h-143v209q-221 25 -341 183.5t-120 399.5zM289 563q0 -176 80 -292.5 t227 -141.5v895q-143 -31 -225 -160t-82 -301z" />
<glyph unicode="&#xa3;" horiz-adv-x="1269" d="M176 618v146h172q0 2 -13 29.5t-14.5 31.5t-12.5 31t-14 34t-11.5 30.5t-11.5 36t-8 34t-7 36.5t-4 34.5t-2 38.5q0 147 111.5 252.5t306.5 105.5q176 0 295.5 -89t177.5 -214l-109 -117h-6q-127 274 -358 275q-111 0 -182.5 -60.5t-71.5 -162.5q0 -27 5 -56.5t10 -51 t18.5 -57.5t20.5 -51.5t25.5 -57.5t22.5 -52h477v-146h-430q16 -59 17 -112q0 -190 -164 -346l4 -4q66 33 174 32q49 0 150.5 -23.5t160.5 -23.5q43 0 98.5 20.5t88.5 51.5h6l67 -152q-125 -84 -282 -84q-63 0 -166 34t-154 34q-121 0 -248 -76l-114 172q223 152 223 369 q0 43 -18 108h-230z" />
<glyph unicode="&#xa4;" horiz-adv-x="1392" d="M176 233l133 134q-96 131 -96 307q0 170 96 305l-133 133l82 82l129 -131q137 117 309 117q174 0 310 -115l129 129l82 -82l-134 -133q96 -135 97 -305q0 -176 -97 -307l134 -134l-82 -81l-131 131q-125 -106 -307.5 -106.5t-307.5 106.5l-131 -131zM367 672 q0 -172 99 -265.5t230 -93.5t228.5 93.5t97.5 265.5t-98.5 269t-225.5 97q-133 0 -232 -97t-99 -269z" />
<glyph unicode="&#xa5;" horiz-adv-x="1280" d="M115 1434h178l346 -697l348 697h178l-377 -736h334v-141h-401v-139h401v-144h-401v-274h-162v274h-401v144h401v139h-401v141h334z" />
<glyph unicode="&#xa6;" horiz-adv-x="575" d="M217 420h143v-936h-143v936zM217 768v858h143v-858h-143z" />
<glyph unicode="&#xa7;" horiz-adv-x="1173" d="M115 602q0 178 223 279q-147 111 -148 270q0 127 97.5 217t275.5 90q162 0 273.5 -76.5t154.5 -158.5l-86 -131h-6q-125 221 -344 221q-102 0 -155.5 -50.5t-53.5 -113.5q0 -68 60.5 -123t269.5 -176q227 -131 306 -212t79 -185q0 -176 -223 -279q147 -113 147 -268 q0 -127 -98.5 -218t-276.5 -91q-160 0 -272.5 77.5t-155.5 159.5l88 129h4q131 -221 344 -221q102 0 155.5 50t53.5 114q0 68 -60 123t-269 176q-227 131 -305 212t-78 185zM270 612q0 -47 27 -80.5t117 -93t315 -188.5q174 82 174 194q0 49 -26.5 83t-116 91.5 t-316.5 186.5q-174 -78 -174 -193z" />
<glyph unicode="&#xa8;" horiz-adv-x="856" d="M115 1380q0 55 28.5 86t84 31t85 -30.5t29.5 -86.5q0 -51 -29.5 -81.5t-85.5 -30.5q-53 0 -82.5 30.5t-29.5 81.5zM512 1384q0 51 31 82t86 31q51 0 81.5 -30.5t30.5 -82.5q0 -53 -30.5 -84.5t-81.5 -31.5q-55 0 -86 30.5t-31 85.5z" />
<glyph unicode="&#xa9;" horiz-adv-x="1710" d="M115 715q0 313 210 528t529 215q317 0 530 -216t213 -527.5t-210.5 -525.5t-532.5 -214q-324 0 -531.5 214t-207.5 526zM250 715q0 -264 171 -439.5t433 -175.5t434 176.5t172 438.5q0 264 -172 441t-434 177t-433 -176t-171 -442zM477 715q0 184 113.5 311t277.5 127 q117 0 204 -62.5t122 -138.5l-88 -104h-8q-29 84 -88.5 134t-141.5 50q-119 0 -187.5 -92t-68.5 -225q0 -137 65.5 -219t190.5 -82q100 0 162 59t84 152h6l107 -95q-45 -111 -135.5 -177t-223.5 -66q-188 0 -289.5 118.5t-101.5 309.5z" />
<glyph unicode="&#xaa;" horiz-adv-x="657" d="M55 922q0 86 50.5 136t168.5 75q115 25 151 49t36 63q0 41 -34 65.5t-97 24.5q-133 0 -203 -139h-6l-66 98q91 152 275 152q113 0 181.5 -57.5t68.5 -165.5v-478h-103l-12 91h-4q-66 -102 -203 -103q-98 0 -150.5 49t-52.5 140zM172 928q0 -84 100 -84q70 0 129.5 40 t59.5 99v121h-2q-25 -39 -154 -66q-74 -16 -103.5 -41.5t-29.5 -68.5z" />
<glyph unicode="&#xab;" horiz-adv-x="905" d="M115 567l227 426h137l-196 -426l196 -426h-137zM424 567l227 426h140l-197 -426l197 -426h-140z" />
<glyph unicode="&#xac;" horiz-adv-x="1232" d="M115 813v139h1003v-592h-139v453h-864z" />
<glyph unicode="&#xad;" horiz-adv-x="831" d="M115 575v140h604v-140h-604z" />
<glyph unicode="&#xae;" horiz-adv-x="1710" d="M115 715q0 313 210 528t529 215q317 0 530 -216t213 -527.5t-210.5 -525.5t-532.5 -214q-324 0 -531.5 214t-207.5 526zM250 715q0 -264 171 -439.5t433 -175.5t434 176.5t172 438.5q0 264 -172 441t-434 177t-433 -176t-171 -442zM623 299v842h268q135 0 205.5 -60.5 t70.5 -169.5q0 -231 -247 -256l237 -356h-141l-228 354h-38v-354h-127zM750 768h104q188 0 188 131q0 63 -34.5 96t-130.5 33h-127v-260z" />
<glyph unicode="&#xaf;" horiz-adv-x="806" d="M115 1280v135h579v-135h-579z" />
<glyph unicode="&#xb0;" horiz-adv-x="868" d="M115 1204q0 137 90 229.5t229 92.5t229.5 -92.5t90.5 -229.5q0 -135 -90.5 -227t-229.5 -92t-229 92t-90 227zM258 1204q0 -78 48 -131t128 -53t128 53t48 131q0 80 -48 133.5t-128 53.5t-128 -53.5t-48 -133.5z" />
<glyph unicode="&#xb1;" horiz-adv-x="1175" d="M115 797v139h399v369h148v-369h399v-139h-399v-391h-148v391h-399zM166 158v139h850v-139h-850z" />
<glyph unicode="&#xb4;" horiz-adv-x="616" d="M115 1280l127 217h262l-207 -217h-182z" />
<glyph unicode="&#xb6;" horiz-adv-x="1257" d="M74 1065q0 186 121.5 277.5t339.5 91.5h505v-1665h-147v1538h-227v-1538h-148v925q-205 0 -324.5 101.5t-119.5 269.5z" />
<glyph unicode="&#xb7;" horiz-adv-x="479" d="M115 817q0 55 35 91t88 36q55 0 91 -36t36 -91q0 -53 -36 -88t-91 -35q-53 0 -88 35t-35 88z" />
<glyph unicode="&#xb8;" horiz-adv-x="677" d="M117 -428l33 111h8q61 -57 145 -58q106 0 106.5 78t-104.5 78q-63 0 -108 -29l-64 47l113 201h96l-96 -154l2 -2q51 29 123 29q76 0 130 -43t54 -129q0 -92 -63.5 -140t-172.5 -48q-115 0 -202 59z" />
<glyph unicode="&#xba;" horiz-adv-x="743" d="M53 1083.5q0 153.5 92.5 258t227.5 104.5t227 -105.5t92 -257.5q0 -154 -86 -252t-233.5 -98t-233.5 98.5t-86 252zM172 1083.5q0 -106.5 52 -171t148.5 -64.5t147.5 64.5t51 171t-52 179t-146 72.5t-147.5 -72.5t-53.5 -179z" />
<glyph unicode="&#xbb;" horiz-adv-x="905" d="M115 141l196 426l-196 426h137l227 -426l-227 -426h-137zM424 141l197 426l-197 426h139l228 -426l-228 -426h-139z" />
<glyph unicode="&#xbc;" horiz-adv-x="1826" d="M106 1350l222 90h112v-856h-129v747h-4l-172 -71zM274 -25l918 1475h106l-915 -1475h-109zM905 223v66l502 575h117v-553h166v-88h-166v-223h-123v223h-496zM1034 313l2 -2h365v299q0 68 6 125h-4q-70 -88 -80 -100z" />
<glyph unicode="&#xbd;" horiz-adv-x="1937" d="M106 1350l222 90h112v-856h-129v747h-4l-172 -71zM274 -25l916 1475h108l-915 -1475h-109zM1100 0v84l178 137q184 141 258 224t74 157q0 63 -46 113.5t-161 50.5q-131 0 -238 -74l-43 80q141 94 310 94q147 0 227 -70.5t80 -172.5q0 -78 -48.5 -153t-108.5 -127 t-185 -148q-16 -12 -25 -19l-102 -76v-4h487v-96h-657z" />
<glyph unicode="&#xbe;" horiz-adv-x="2037" d="M90 635l37 90q35 -20 107.5 -39.5t146.5 -19.5q127 0 199.5 48t72.5 117q0 76 -87 120t-234 44h-82v86h84q121 0 200.5 43t79.5 107q0 53 -51 91t-157 38q-117 -1 -228 -64l-35 84q123 72 289 72q158 0 235.5 -60.5t77.5 -146.5q0 -68 -53 -120t-145 -81v-4 q109 -14 176.5 -73.5t67.5 -139.5q0 -104 -106.5 -179t-295.5 -75q-184 0 -299 62zM487 -25l916 1475h106l-915 -1475h-107zM1116 223v66l500 575h117v-553h165v-88h-165v-223h-119v223h-498zM1247 311h367v299q0 68 6 125h-6q-25 -31 -78 -100l-289 -322v-2z" />
<glyph unicode="&#xbf;" horiz-adv-x="1054" d="M145 -14q0 113 63.5 175t233.5 148q141 74 185.5 112t44.5 85t-34 72.5t-89 25.5q-57 0 -130 -40t-118 -107h-6l-82 127q45 66 142.5 117t209.5 51q121 0 195 -64.5t74 -175.5q0 -98 -64.5 -164.5t-216.5 -144.5q-162 -82 -205 -119t-43 -100q0 -61 50.5 -101.5 t131.5 -40.5q98 0 180.5 59.5t129.5 159.5h6l98 -135q-49 -92 -156.5 -163.5t-252.5 -71.5q-156 0 -251.5 85t-95.5 210zM379 1034.5q0 57.5 35 92t96 34.5q59 0 93 -34.5t34 -92t-34 -93.5t-93 -36q-61 0 -96 36t-35 93.5z" />
<glyph unicode="&#xc0;" horiz-adv-x="1339" d="M43 0l506 1434h242l505 -1434h-174l-149 438h-606l-150 -438h-174zM348 1778h260l129 -217h-182zM410 578h518l-256 725h-6z" />
<glyph unicode="&#xc1;" horiz-adv-x="1339" d="M43 0l506 1434h242l505 -1434h-174l-149 438h-606l-150 -438h-174zM410 578h518l-256 725h-6zM580 1561l127 217h262l-207 -217h-182z" />
<glyph unicode="&#xc2;" horiz-adv-x="1339" d="M43 0l506 1434h242l505 -1434h-174l-149 438h-606l-150 -438h-174zM383 1561l160 215h254l159 -215h-188l-96 147h-4l-97 -147h-188zM410 578h518l-256 725h-6z" />
<glyph unicode="&#xc3;" horiz-adv-x="1339" d="M43 0l506 1434h242l505 -1434h-174l-149 438h-606l-150 -438h-174zM383 1561q34 208 184 208q59 0 127 -35.5t94 -35.5q55 0 72 61h98q-20 -104 -60 -155.5t-124 -51.5q-61 0 -128.5 36t-96.5 36q-53 0 -70 -63h-96zM410 578h518l-256 725h-6z" />
<glyph unicode="&#xc4;" horiz-adv-x="1339" d="M43 0l506 1434h242l505 -1434h-174l-149 438h-606l-150 -438h-174zM356 1661q0 115 113 115q55 0 85 -31t30 -84q0 -51 -30 -82t-85 -31q-53 0 -83 31t-30 82zM410 578h518l-256 725h-6zM754 1663q0 53 30.5 83t85.5 30q51 0 82 -30t31 -83t-30.5 -84t-82.5 -31 q-55 0 -85.5 31t-30.5 84z" />
<glyph unicode="&#xc5;" horiz-adv-x="1339" d="M43 0l506 1434h242l505 -1434h-174l-149 438h-606l-150 -438h-174zM410 578h518l-256 725h-6zM463 1712q0 86 58.5 146.5t146.5 60.5t147 -60.5t59 -146.5q0 -88 -58 -147.5t-148 -59.5q-88 0 -146.5 60.5t-58.5 146.5zM573 1712q0 -41 27 -69.5t68 -28.5q43 0 69.5 28.5 t26.5 69.5t-26.5 69.5t-69.5 28.5q-41 0 -68 -28.5t-27 -69.5z" />
<glyph unicode="&#xc6;" horiz-adv-x="1785" d="M12 0l760 1434h879v-150h-549v-489h549v-140h-549v-505h549v-150h-709v438h-518l-234 -438h-178zM498 578h444v706h-80z" />
<glyph unicode="&#xc7;" horiz-adv-x="1349" d="M104 723q0 188 75 355t221.5 273.5t330.5 106.5q203 0 338 -107.5t199 -258.5l-121 -113h-8q-135 330 -408 330q-211 0 -337 -176.5t-126 -409.5q0 -272 123 -433t342 -161q170 0 281.5 110.5t146.5 288.5h10l138 -106q-63 -213 -213 -330t-365 -117h-10l-80 -129l2 -2 q49 29 123 29q76 0 130 -43t54 -129q0 -92 -63.5 -140t-171.5 -48q-113 0 -203 59l33 111h8q61 -57 145 -58q106 0 106.5 78t-104.5 78q-63 0 -108 -29l-64 47l103 183q-246 33 -386.5 224t-140.5 517z" />
<glyph unicode="&#xc8;" horiz-adv-x="1134" d="M176 0v1434h825v-150h-661v-489h661v-140h-661v-505h661v-150h-825zM270 1778h260l129 -217h-182z" />
<glyph unicode="&#xc9;" horiz-adv-x="1134" d="M176 0v1434h825v-150h-661v-489h661v-140h-661v-505h661v-150h-825zM502 1561l127 217h262l-207 -217h-182z" />
<glyph unicode="&#xca;" horiz-adv-x="1134" d="M176 0v1434h825v-150h-661v-489h661v-140h-661v-505h661v-150h-825zM307 1561l160 215h254l160 -215h-189l-96 147h-4l-96 -147h-189z" />
<glyph unicode="&#xcb;" horiz-adv-x="1134" d="M176 0v1434h825v-150h-661v-489h661v-140h-661v-505h661v-150h-825zM281 1661q-1 115 112 115q55 0 85 -31t30 -84q0 -51 -29.5 -82t-85.5 -31q-53 0 -82.5 31t-29.5 82zM678 1663q0 53 31 83t86 30q53 0 82.5 -30t29.5 -83t-30.5 -84t-81.5 -31q-55 0 -86 31t-31 84z " />
<glyph unicode="&#xcc;" horiz-adv-x="514" d="M-66 1778h261l129 -217h-183zM176 0v1434h164v-1434h-164z" />
<glyph unicode="&#xcd;" horiz-adv-x="514" d="M166 1561l127 217h262l-207 -217h-182zM176 0v1434h164v-1434h-164z" />
<glyph unicode="&#xce;" horiz-adv-x="514" d="M-29 1561l160 215h254l160 -215h-189l-96 147h-4l-96 -147h-189zM176 0v1434h164v-1434h-164z" />
<glyph unicode="&#xcf;" horiz-adv-x="514" d="M-55 1661q-1 115 112 115q55 0 85 -31t30 -84q0 -51 -29.5 -82t-85.5 -31q-53 0 -82.5 31t-29.5 82zM176 0v1434h164v-1434h-164zM342 1663q0 53 31 83t86 30q53 0 82.5 -30t29.5 -83t-30.5 -84t-81.5 -31q-55 0 -86 31t-31 84z" />
<glyph unicode="&#xd0;" horiz-adv-x="1437" d="M43 657v144h174v633h428q352 0 515 -170t163 -541q0 -369 -172 -546t-514 -177h-420v657h-174zM381 150h270q508 0 508 573q0 289 -111.5 425t-388.5 136h-278v-483h360v-144h-360v-507z" />
<glyph unicode="&#xd1;" horiz-adv-x="1406" d="M176 0v1434h252l639 -1284h4v1284h162v-1434h-254l-639 1284h-4v-1284h-160zM418 1561q34 208 184 208q59 0 127 -35.5t94 -35.5q55 0 72 61h98q-20 -104 -60 -155.5t-124 -51.5q-61 0 -129 36t-96 36q-53 0 -70 -63h-96z" />
<glyph unicode="&#xd2;" horiz-adv-x="1464" d="M104 723q0 293 176.5 514t450.5 221q184 0 330.5 -106.5t222.5 -273.5t76 -355q0 -358 -168 -553t-461 -195q-291 0 -459 195t-168 553zM268 723q0 -270 122 -432t341 -162t342 161t123 433q0 152 -52 284t-161 219t-252 87q-213 0 -338 -177.5t-125 -412.5zM410 1778 h260l129 -217h-183z" />
<glyph unicode="&#xd3;" horiz-adv-x="1464" d="M104 723q0 293 176.5 514t450.5 221q184 0 330.5 -106.5t222.5 -273.5t76 -355q0 -358 -168 -553t-461 -195q-291 0 -459 195t-168 553zM268 723q0 -270 122 -432t341 -162t342 161t123 433q0 152 -52 284t-161 219t-252 87q-213 0 -338 -177.5t-125 -412.5zM641 1561 l127 217h262l-207 -217h-182z" />
<glyph unicode="&#xd4;" horiz-adv-x="1464" d="M104 723q0 293 176.5 514t450.5 221q184 0 330.5 -106.5t222.5 -273.5t76 -355q0 -358 -168 -553t-461 -195q-291 0 -459 195t-168 553zM268 723q0 -270 122 -432t341 -162t342 161t123 433q0 152 -52 284t-161 219t-252 87q-213 0 -338 -177.5t-125 -412.5zM444 1561 l160 215h254l160 -215h-189l-96 147h-4l-96 -147h-189z" />
<glyph unicode="&#xd5;" horiz-adv-x="1464" d="M104 723q0 293 176.5 514t450.5 221q184 0 330.5 -106.5t222.5 -273.5t76 -355q0 -358 -168 -553t-461 -195q-291 0 -459 195t-168 553zM268 723q0 -270 122 -432t341 -162t342 161t123 433q0 152 -52 284t-161 219t-252 87q-213 0 -338 -177.5t-125 -412.5zM444 1561 q35 208 185 208q59 0 126.5 -35.5t94.5 -35.5q55 0 72 61h98q-20 -104 -60 -155.5t-124 -51.5q-61 0 -129 36t-97 36q-53 0 -69 -63h-97z" />
<glyph unicode="&#xd6;" horiz-adv-x="1464" d="M104 723q0 293 176.5 514t450.5 221q184 0 330.5 -106.5t222.5 -273.5t76 -355q0 -358 -168 -553t-461 -195q-291 0 -459 195t-168 553zM268 723q0 -270 122 -432t341 -162t342 161t123 433q0 152 -52 284t-161 219t-252 87q-213 0 -338 -177.5t-125 -412.5zM418 1661 q-1 115 112 115q55 0 85 -31t30 -84q0 -51 -29.5 -82t-85.5 -31q-53 0 -82.5 31t-29.5 82zM815 1663q0 53 31 83t86 30q51 0 81.5 -30t30.5 -83t-30.5 -84t-81.5 -31q-55 0 -86 31t-31 84z" />
<glyph unicode="&#xd7;" horiz-adv-x="1091" d="M115 391l336 340l-334 336l92 96l336 -340l338 340l92 -96l-336 -336l338 -340l-92 -96l-340 340l-338 -340z" />
<glyph unicode="&#xd8;" horiz-adv-x="1464" d="M104 723q0 293 176.5 514t450.5 221q186 0 344 -117l76 111l115 -80l-88 -127q182 -217 182 -522q0 -358 -168 -553t-461 -195q-213 0 -360 105l-78 -113l-113 82l88 125q-164 195 -164 549zM268 723q0 -252 101 -401l620 897q-115 94 -258 94q-213 0 -338 -177.5 t-125 -412.5zM465 215q111 -86 266 -86q219 0 342 161t123 433q0 221 -111 389z" />
<glyph unicode="&#xd9;" horiz-adv-x="1384" d="M156 528v906h163v-891q0 -201 95.5 -308.5t280 -107.5t277.5 107.5t93 308.5v891h164v-906q0 -254 -134 -403.5t-401 -149.5q-268 0 -403 149.5t-135 403.5zM371 1778h260l129 -217h-182z" />
<glyph unicode="&#xda;" horiz-adv-x="1384" d="M156 528v906h163v-891q0 -201 95.5 -308.5t280 -107.5t277.5 107.5t93 308.5v891h164v-906q0 -254 -134 -403.5t-401 -149.5q-268 0 -403 149.5t-135 403.5zM602 1561l127 217h262l-207 -217h-182z" />
<glyph unicode="&#xdb;" horiz-adv-x="1384" d="M156 528v906h163v-891q0 -201 95.5 -308.5t280 -107.5t277.5 107.5t93 308.5v891h164v-906q0 -254 -134 -403.5t-401 -149.5q-268 0 -403 149.5t-135 403.5zM406 1561l159 215h254l160 -215h-188l-97 147h-4l-96 -147h-188z" />
<glyph unicode="&#xdc;" horiz-adv-x="1384" d="M156 528v906h163v-891q0 -201 95.5 -308.5t280 -107.5t277.5 107.5t93 308.5v891h164v-906q0 -254 -134 -403.5t-401 -149.5q-268 0 -403 149.5t-135 403.5zM379 1661q0 115 113 115q55 0 84.5 -31t29.5 -84q0 -51 -29.5 -82t-84.5 -31q-53 0 -83 31t-30 82zM776 1663 q0 53 31 83t86 30q53 0 83 -30t30 -83t-31 -84t-82 -31q-55 0 -86 31t-31 84z" />
<glyph unicode="&#xdd;" horiz-adv-x="1116" d="M33 1434h180l344 -719l346 719h180l-444 -893v-541h-162v541zM467 1561l127 217h262l-207 -217h-182z" />
<glyph unicode="&#xde;" horiz-adv-x="1212" d="M176 0v1434h164v-236h332q469 0 469 -412q0 -211 -134.5 -315t-347.5 -104h-319v-367h-164zM340 516h295q342 0 342 270q0 137 -71.5 200t-241.5 63h-324v-533z" />
<glyph unicode="&#xdf;" horiz-adv-x="1165" d="M156 0v999q0 207 109 333t302 126q186 0 291 -108.5t105 -266.5q0 -127 -67 -203.5t-173 -105.5v-4q147 -23 237.5 -129t90.5 -270q0 -176 -96.5 -286t-280.5 -110q-125 0 -228 45l21 150h6q98 -53 192.5 -53t165 62.5t70.5 195.5q0 143 -87 223t-241 80h-90v139 q162 8 246 77t84 181.5t-67.5 178t-180.5 65.5q-256 0 -256 -348v-971h-153z" />
<glyph unicode="&#xe0;" horiz-adv-x="1073" d="M104 920q61 111 179.5 181t265.5 70q176 0 283.5 -90t107.5 -241v-840h-131l-23 152h-4q-121 -176 -350 -177q-152 0 -239 86t-87 228q0 135 84 224t281 128q195 41 255 88t60 125q0 82 -61 130t-176 48q-117 0 -206 -64.5t-138 -179.5h-6zM236 1497h260l129 -217h-183z M256 293q0 -78 50 -127t138 -49q127 0 234.5 78.5t107.5 191.5v250h-4q-23 -39 -79 -65.5t-195 -59.5q-141 -33 -196.5 -85t-55.5 -134z" />
<glyph unicode="&#xe1;" horiz-adv-x="1073" d="M104 920q61 111 179.5 181t265.5 70q176 0 283.5 -90t107.5 -241v-840h-131l-23 152h-4q-121 -176 -350 -177q-152 0 -239 86t-87 228q0 135 84 224t281 128q195 41 255 88t60 125q0 82 -61 130t-176 48q-117 0 -206 -64.5t-138 -179.5h-6zM256 293q0 -78 50 -127 t138 -49q127 0 234.5 78.5t107.5 191.5v250h-4q-23 -39 -79 -65.5t-195 -59.5q-141 -33 -196.5 -85t-55.5 -134zM453 1280l127 217h262l-207 -217h-182z" />
<glyph unicode="&#xe2;" horiz-adv-x="1073" d="M104 920q61 111 179.5 181t265.5 70q176 0 283.5 -90t107.5 -241v-840h-131l-23 152h-4q-121 -176 -350 -177q-152 0 -239 86t-87 228q0 135 84 224t281 128q195 41 255 88t60 125q0 82 -61 130t-176 48q-117 0 -206 -64.5t-138 -179.5h-6zM256 293q0 -78 50 -127 t138 -49q127 0 234.5 78.5t107.5 191.5v250h-4q-23 -39 -79 -65.5t-195 -59.5q-141 -33 -196.5 -85t-55.5 -134zM256 1280l160 215h254l159 -215h-188l-96 147h-4l-97 -147h-188z" />
<glyph unicode="&#xe3;" horiz-adv-x="1073" d="M104 920q61 111 179.5 181t265.5 70q176 0 283.5 -90t107.5 -241v-840h-131l-23 152h-4q-121 -176 -350 -177q-152 0 -239 86t-87 228q0 135 84 224t281 128q195 41 255 88t60 125q0 82 -61 130t-176 48q-117 0 -206 -64.5t-138 -179.5h-6zM256 293q0 -78 50 -127 t138 -49q127 0 234.5 78.5t107.5 191.5v250h-4q-23 -39 -79 -65.5t-195 -59.5q-141 -33 -196.5 -85t-55.5 -134zM256 1280q34 209 184 209q59 0 127 -36t95 -36q55 0 71 62h98q-20 -104 -60 -155.5t-124 -51.5q-61 0 -128.5 35.5t-96.5 35.5q-53 0 -70 -63h-96z" />
<glyph unicode="&#xe4;" horiz-adv-x="1073" d="M104 920q61 111 179.5 181t265.5 70q176 0 283.5 -90t107.5 -241v-840h-131l-23 152h-4q-121 -176 -350 -177q-152 0 -239 86t-87 228q0 135 84 224t281 128q195 41 255 88t60 125q0 82 -61 130t-176 48q-117 0 -206 -64.5t-138 -179.5h-6zM229 1380q0 55 29 86t84 31 t85 -30.5t30 -86.5q0 -51 -30 -81.5t-85 -30.5q-53 0 -83 30.5t-30 81.5zM256 293q0 -78 50 -127t138 -49q127 0 234.5 78.5t107.5 191.5v250h-4q-23 -39 -79 -65.5t-195 -59.5q-141 -33 -196.5 -85t-55.5 -134zM627 1384q0 51 30.5 82t85.5 31q51 0 82 -30.5t31 -82.5 q0 -53 -30.5 -84.5t-82.5 -31.5q-55 0 -85.5 30.5t-30.5 85.5z" />
<glyph unicode="&#xe5;" horiz-adv-x="1073" d="M104 920q61 111 179.5 181t265.5 70q176 0 283.5 -90t107.5 -241v-840h-131l-23 152h-4q-121 -176 -350 -177q-152 0 -239 86t-87 228q0 135 84 224t281 128q195 41 255 88t60 125q0 82 -61 130t-176 48q-117 0 -206 -64.5t-138 -179.5h-6zM256 293q0 -78 50 -127 t138 -49q127 0 234.5 78.5t107.5 191.5v250h-4q-23 -39 -79 -65.5t-195 -59.5q-141 -33 -196.5 -85t-55.5 -134zM338 1432q0 86 58.5 146t146.5 60t147.5 -60t59.5 -146q0 -88 -58.5 -147.5t-148.5 -59.5q-88 0 -146.5 60.5t-58.5 146.5zM449 1432q0 -43 25.5 -71t68.5 -28 t69.5 28t26.5 71t-26.5 70.5t-69.5 27.5t-68.5 -27.5t-25.5 -70.5z" />
<glyph unicode="&#xe6;" horiz-adv-x="1873" d="M94 289q0 139 83 225t282 125q193 39 255 88t62 127q0 82 -62.5 131t-176.5 49q-117 0 -207 -66.5t-137 -189.5h-7l-92 127q57 119 175 192.5t268 73.5q133 0 228 -54t132 -146q66 92 167 146t222 54q215 0 354.5 -158.5t139.5 -422.5q0 -57 -2 -68h-856 q8 -182 109.5 -292.5t266.5 -110.5q221 0 365 215h6l70 -146q-68 -94 -184.5 -153.5t-254.5 -59.5q-305 0 -444 246q-55 -113 -166.5 -179.5t-267.5 -66.5q-154 0 -241 83t-87 231zM242 293q0 -88 53 -133t147 -43q127 4 229.5 83t102.5 187v250h-4q-23 -39 -78 -65.5 t-198 -59.5q-145 -33 -198.5 -81t-53.5 -138zM926 653h704q-10 182 -104 282.5t-239.5 100.5t-245 -107.5t-115.5 -275.5z" />
<glyph unicode="&#xe7;" horiz-adv-x="1142" d="M94 563q0 258 149.5 433t379.5 175q162 0 280.5 -89t165.5 -199l-106 -113h-7q-100 262 -335 262q-172 0 -272.5 -137t-100.5 -332q0 -199 98 -320.5t277 -121.5q145 0 232 85t116 214h8l121 -101q-49 -154 -172 -249t-305 -95h-7l-79 -129l2 -2q51 29 123 29 q76 0 130 -43t54 -129q0 -92 -63.5 -140t-172.5 -48q-115 0 -202 59l32 111h9q61 -57 145 -58q106 0 106 78t-104 78q-63 0 -109 -29l-63 47l102 183q-205 31 -318.5 188.5t-113.5 392.5z" />
<glyph unicode="&#xe8;" d="M94 578q0 256 149.5 424.5t364.5 168.5t355.5 -158.5t140.5 -422.5l-2 -68h-856q10 -182 110.5 -291.5t264.5 -109.5q223 0 362 215h6l78 -143q-68 -96 -186.5 -157t-257.5 -61q-256 0 -392.5 165t-136.5 438zM252 657h698q-10 180 -104 277.5t-237.5 97.5t-242 -106.5 t-114.5 -268.5zM303 1497h260l129 -217h-182z" />
<glyph unicode="&#xe9;" d="M94 578q0 256 149.5 424.5t364.5 168.5t355.5 -158.5t140.5 -422.5l-2 -68h-856q10 -182 110.5 -291.5t264.5 -109.5q223 0 362 215h6l78 -143q-68 -96 -186.5 -157t-257.5 -61q-256 0 -392.5 165t-136.5 438zM252 657h698q-10 180 -104 277.5t-237.5 97.5t-242 -106.5 t-114.5 -268.5zM518 1280l127 217h262l-207 -217h-182z" />
<glyph unicode="&#xea;" d="M94 578q0 256 149.5 424.5t364.5 168.5t355.5 -158.5t140.5 -422.5l-2 -68h-856q10 -182 110.5 -291.5t264.5 -109.5q223 0 362 215h6l78 -143q-68 -96 -186.5 -157t-257.5 -61q-256 0 -392.5 165t-136.5 438zM252 657h698q-10 180 -104 277.5t-237.5 97.5t-242 -106.5 t-114.5 -268.5zM322 1280l159 215h254l160 -215h-188l-97 147h-4l-96 -147h-188z" />
<glyph unicode="&#xeb;" d="M94 578q0 256 149.5 424.5t364.5 168.5t355.5 -158.5t140.5 -422.5l-2 -68h-856q10 -182 110.5 -291.5t264.5 -109.5q223 0 362 215h6l78 -143q-68 -96 -186.5 -157t-257.5 -61q-256 0 -392.5 165t-136.5 438zM252 657h698q-10 180 -104 277.5t-237.5 97.5t-242 -106.5 t-114.5 -268.5zM297 1380q0 55 28.5 86t84 31t85 -30.5t29.5 -86.5q0 -51 -29.5 -81.5t-84.5 -30.5q-53 0 -83 30.5t-30 81.5zM694 1384q0 51 31 82t86 31q51 0 82 -30.5t31 -82.5q0 -53 -31 -84.5t-82 -31.5q-55 0 -86 30.5t-31 85.5z" />
<glyph unicode="&#xec;" horiz-adv-x="462" d="M-74 1497h260l129 -217h-182zM156 0v1147h153v-1147h-153z" />
<glyph unicode="&#xed;" horiz-adv-x="462" d="M141 1280l127 217h262l-206 -217h-183zM156 0v1147h153v-1147h-153z" />
<glyph unicode="&#xee;" horiz-adv-x="462" d="M-53 1280l159 215h254l160 -215h-188l-96 147h-5l-96 -147h-188zM156 0v1147h153v-1147h-153z" />
<glyph unicode="&#xef;" horiz-adv-x="462" d="M-80 1380q0 55 28.5 86t84 31t85 -30.5t29.5 -86.5q0 -51 -29.5 -81.5t-84.5 -30.5q-53 0 -83 30.5t-30 81.5zM156 0v1147h153v-1147h-153zM317 1384q0 51 31 82t86 31q51 0 82 -30.5t31 -82.5q0 -53 -31 -84.5t-82 -31.5q-55 0 -86 30.5t-31 85.5z" />
<glyph unicode="&#xf0;" horiz-adv-x="1257" d="M94 563q0 256 148.5 432t373.5 176q119 0 212.5 -52t140.5 -126l4 2q-59 238 -250 383l-221 -139l-60 96l176 111q-63 35 -143 65l-2 5l53 126q119 -45 224 -114l233 147l59 -94l-198 -127q319 -283 319 -823q0 -129 -28.5 -242t-89 -208t-169 -150.5t-253.5 -55.5 q-252 0 -390.5 163t-138.5 425zM248 557q0 -193 100.5 -314.5t276.5 -121.5q176 2 274 129t98 313q0 205 -100 337t-274 132t-274.5 -137t-100.5 -338z" />
<glyph unicode="&#xf1;" horiz-adv-x="1200" d="M156 0v1147h133l18 -158h6q123 182 361 182q188 0 289.5 -118.5t101.5 -302.5v-750h-154v719q0 152 -67.5 232.5t-198.5 80.5q-147 0 -241.5 -114.5t-94.5 -303.5v-614h-153zM365 1280q34 209 184 209q59 0 126.5 -36t94.5 -36q55 0 72 62h98q-20 -104 -60 -155.5 t-124 -51.5q-61 0 -129 35.5t-97 35.5q-53 0 -69 -63h-96z" />
<glyph unicode="&#xf2;" horiz-adv-x="1243" d="M94 563q0 256 150.5 432t378 176t378 -177t150.5 -431q0 -262 -139.5 -425t-388.5 -163q-248 0 -388.5 164t-140.5 424zM248 563q0 -199 99 -320.5t276 -121.5q178 0 276 122t98 320q0 197 -101 333t-273 136t-273.5 -137t-101.5 -332zM315 1497h260l130 -217h-183z" />
<glyph unicode="&#xf3;" horiz-adv-x="1243" d="M94 563q0 256 150.5 432t378 176t378 -177t150.5 -431q0 -262 -139.5 -425t-388.5 -163q-248 0 -388.5 164t-140.5 424zM248 563q0 -199 99 -320.5t276 -121.5q178 0 276 122t98 320q0 197 -101 333t-273 136t-273.5 -137t-101.5 -332zM532 1280l127 217h263l-207 -217 h-183z" />
<glyph unicode="&#xf4;" horiz-adv-x="1243" d="M94 563q0 256 150.5 432t378 176t378 -177t150.5 -431q0 -262 -139.5 -425t-388.5 -163q-248 0 -388.5 164t-140.5 424zM248 563q0 -199 99 -320.5t276 -121.5q178 0 276 122t98 320q0 197 -101 333t-273 136t-273.5 -137t-101.5 -332zM336 1280l160 215h254l159 -215 h-188l-96 147h-4l-97 -147h-188z" />
<glyph unicode="&#xf5;" horiz-adv-x="1243" d="M94 563q0 256 150.5 432t378 176t378 -177t150.5 -431q0 -262 -139.5 -425t-388.5 -163q-248 0 -388.5 164t-140.5 424zM248 563q0 -199 99 -320.5t276 -121.5q178 0 276 122t98 320q0 197 -101 333t-273 136t-273.5 -137t-101.5 -332zM336 1280q34 209 184 209 q59 0 127 -36t94 -36q55 0 72 62h98q-20 -104 -60 -155.5t-124 -51.5q-61 0 -129 35.5t-96 35.5q-53 0 -70 -63h-96z" />
<glyph unicode="&#xf6;" horiz-adv-x="1243" d="M94 563q0 256 150.5 432t378 176t378 -177t150.5 -431q0 -262 -139.5 -425t-388.5 -163q-248 0 -388.5 164t-140.5 424zM248 563q0 -199 99 -320.5t276 -121.5q178 0 276 122t98 320q0 197 -101 333t-273 136t-273.5 -137t-101.5 -332zM309 1380q0 55 29 86t84 31 t85 -30.5t30 -86.5q0 -51 -30 -81.5t-85 -30.5q-53 0 -83 30.5t-30 81.5zM707 1384q0 51 30.5 82t85.5 31q51 0 82 -30.5t31 -82.5q0 -53 -31 -84.5t-82 -31.5q-55 0 -85.5 30.5t-30.5 85.5z" />
<glyph unicode="&#xf7;" horiz-adv-x="1161" d="M115 655v140h934v-140h-934zM444 323.5q0 57.5 39 98.5t98.5 41t98.5 -41t39 -98.5t-39 -97.5t-98.5 -40t-98.5 40t-39 97.5zM444 1128.5q0 57.5 39 97.5t98.5 40t98.5 -40t39 -97.5t-39 -98.5t-98.5 -41t-98.5 41t-39 98.5z" />
<glyph unicode="&#xf8;" horiz-adv-x="1243" d="M94 563q0 256 150.5 432t378.5 176q156 0 280 -90l68 95l112 -80l-79 -107q147 -176 147 -426q0 -262 -139 -425t-389 -163q-174 0 -299 84l-58 -82l-106 80l65 90q-131 160 -131 416zM248 563q0 -170 74 -284l499 690q-81 63 -198 63q-172 0 -273.5 -137t-101.5 -332z M416 182q88 -61 207 -61q178 0 276 122t98 320q0 174 -82 303z" />
<glyph unicode="&#xf9;" horiz-adv-x="1136" d="M135 375v772h154v-750q0 -279 235 -278q139 0 232.5 99t93.5 259v670h154v-1147h-134l-22 160h-6q-47 -80 -133 -132.5t-201 -52.5q-182 0 -277.5 109t-95.5 291zM260 1497h260l129 -217h-182z" />
<glyph unicode="&#xfa;" horiz-adv-x="1136" d="M135 375v772h154v-750q0 -279 235 -278q139 0 232.5 99t93.5 259v670h154v-1147h-134l-22 160h-6q-47 -80 -133 -132.5t-201 -52.5q-182 0 -277.5 109t-95.5 291zM477 1280l127 217h262l-207 -217h-182z" />
<glyph unicode="&#xfb;" horiz-adv-x="1136" d="M135 375v772h154v-750q0 -279 235 -278q139 0 232.5 99t93.5 259v670h154v-1147h-134l-22 160h-6q-47 -80 -133 -132.5t-201 -52.5q-182 0 -277.5 109t-95.5 291zM281 1280l159 215h254l160 -215h-188l-97 147h-4l-96 -147h-188z" />
<glyph unicode="&#xfc;" horiz-adv-x="1136" d="M135 375v772h154v-750q0 -279 235 -278q139 0 232.5 99t93.5 259v670h154v-1147h-134l-22 160h-6q-47 -80 -133 -132.5t-201 -52.5q-182 0 -277.5 109t-95.5 291zM254 1380q0 55 28.5 86t84 31t85 -30.5t29.5 -86.5q0 -51 -29.5 -81.5t-84.5 -30.5q-53 0 -83 30.5 t-30 81.5zM651 1384q0 51 31 82t86 31q51 0 82 -30.5t31 -82.5q0 -53 -31 -84.5t-82 -31.5q-55 0 -86 30.5t-31 85.5z" />
<glyph unicode="&#xfd;" horiz-adv-x="1046" d="M53 1147h174l308 -883h4l282 883h174l-528 -1526h-172l160 455zM432 1280l127 217h262l-207 -217h-182z" />
<glyph unicode="&#xfe;" horiz-adv-x="1253" d="M156 -381v1872h153v-506h4q47 78 141.5 132t215.5 54q217 0 354 -175t137 -433q0 -262 -130 -425t-361 -163q-238 0 -357 181h-4v-537h-153zM303 567q0 -203 94.5 -324.5t259.5 -121.5q168 0 259.5 122t91.5 320q0 201 -94.5 335t-256.5 134q-164 0 -259 -130t-95 -335z " />
<glyph unicode="&#xff;" horiz-adv-x="1046" d="M53 1147h174l308 -883h4l282 883h174l-528 -1526h-172l160 455zM209 1380q0 55 28.5 86t84 31t85 -30.5t29.5 -86.5q0 -51 -29.5 -81.5t-84.5 -30.5q-53 0 -83 30.5t-30 81.5zM606 1384q0 51 31 82t86 31q51 0 82 -30.5t31 -82.5q0 -53 -31 -84.5t-82 -31.5 q-55 0 -86 30.5t-31 85.5z" />
<glyph unicode="&#x152;" horiz-adv-x="1753" d="M104 715q0 344 174 543.5t453 199.5q90 0 156 -24h731v-150h-584v-489h584v-138h-584v-507h584v-150h-715q-78 -25 -172 -25q-297 0 -462 195t-165 545zM268 715q0 -268 123 -426t340 -158q100 0 146 27v1114q-56 33 -146 33q-219 0 -341 -160t-122 -430z" />
<glyph unicode="&#x153;" horiz-adv-x="2099" d="M94 563q0 256 150.5 432t378.5 176q143 0 262 -77.5t184 -208.5q70 133 186.5 209.5t255.5 76.5q215 0 355.5 -158.5t140.5 -422.5l-2 -68h-858q8 -182 109.5 -292.5t267.5 -110.5q225 0 364 215h6l72 -146q-70 -94 -186.5 -153.5t-253.5 -59.5q-322 0 -453 261 q-135 -260 -450 -261q-248 0 -388.5 164t-140.5 424zM246 563q0 -199 100 -321.5t277 -122.5q178 0 277 121.5t99 324.5q-2 201 -103 335t-273 134t-274.5 -138t-102.5 -333zM1153 653h702q-10 182 -104 282.5t-239.5 100.5t-244 -107.5t-114.5 -275.5z" />
<glyph unicode="&#x178;" horiz-adv-x="1116" d="M33 1434h180l344 -719l346 719h180l-444 -893v-541h-162v541zM246 1661q-1 115 112 115q55 0 85 -31t30 -84q0 -51 -29.5 -82t-85.5 -31q-53 0 -82.5 31t-29.5 82zM643 1663q0 53 31 83t86 30q51 0 81.5 -30t30.5 -83t-30.5 -84t-81.5 -31q-55 0 -86 31t-31 84z" />
<glyph unicode="&#x2c6;" horiz-adv-x="802" d="M115 1280l159 215h254l160 -215h-188l-97 147h-4l-96 -147h-188z" />
<glyph unicode="&#x2dc;" horiz-adv-x="802" d="M115 1280q34 209 184 209q59 0 127 -36t94 -36q55 0 72 62h98q-20 -104 -60 -155.5t-124 -51.5q-61 0 -129 35.5t-96 35.5q-53 0 -70 -63h-96z" />
<glyph unicode="&#x2000;" horiz-adv-x="959" />
<glyph unicode="&#x2001;" horiz-adv-x="1919" />
<glyph unicode="&#x2002;" horiz-adv-x="959" />
<glyph unicode="&#x2003;" horiz-adv-x="1919" />
<glyph unicode="&#x2004;" horiz-adv-x="639" />
<glyph unicode="&#x2005;" horiz-adv-x="479" />
<glyph unicode="&#x2006;" horiz-adv-x="319" />
<glyph unicode="&#x2007;" horiz-adv-x="319" />
<glyph unicode="&#x2008;" horiz-adv-x="239" />
<glyph unicode="&#x2009;" horiz-adv-x="383" />
<glyph unicode="&#x200a;" horiz-adv-x="106" />
<glyph unicode="&#x2010;" horiz-adv-x="831" d="M115 575v140h604v-140h-604z" />
<glyph unicode="&#x2011;" horiz-adv-x="831" d="M115 575v140h604v-140h-604z" />
<glyph unicode="&#x2012;" horiz-adv-x="831" d="M115 575v140h604v-140h-604z" />
<glyph unicode="&#x2013;" horiz-adv-x="1251" d="M115 575v140h1024v-140h-1024z" />
<glyph unicode="&#x2014;" horiz-adv-x="1863" d="M115 575v140h1634v-140h-1634z" />
<glyph unicode="&#x2018;" horiz-adv-x="489" d="M113 1169q0 135 125 265h81v-7q-63 -90 -63 -165q57 0 89 -34t32 -85q0 -55 -35 -90t-94 -35q-61 0 -98 42t-37 109z" />
<glyph unicode="&#x2019;" horiz-adv-x="489" d="M113 1321q0 57 35 91t94 34q61 0 98 -41t37 -109q0 -135 -125 -264h-82v6q63 90 63 166q-55 0 -87.5 34t-32.5 83z" />
<glyph unicode="&#x201a;" horiz-adv-x="489" d="M113 117q0 57 35 91t94 34q61 0 98 -41t37 -109q0 -135 -125 -264h-82v6q63 90 63 166q-55 0 -87.5 34t-32.5 83z" />
<glyph unicode="&#x201c;" horiz-adv-x="831" d="M113 1169q0 135 125 265h81v-7q-63 -90 -63 -165q57 0 89 -34t32 -85q0 -55 -35 -90t-94 -35q-61 0 -98 42t-37 109zM453 1169q0 129 125 265h84v-7q-63 -84 -64 -165q55 0 87 -34t32 -85q0 -57 -35 -91t-94 -34q-61 0 -98 42t-37 109z" />
<glyph unicode="&#x201d;" horiz-adv-x="831" d="M113 1323q0 57 35 91t94 34q61 0 98 -41t37 -109q0 -133 -125 -266h-82v8q63 90 63 166q-55 0 -87.5 34t-32.5 83zM455 1323q0 57 33.5 91t95 34t98.5 -42t37 -108q0 -127 -125 -266h-84v8q63 84 63 166q-55 0 -86.5 34t-31.5 83z" />
<glyph unicode="&#x201e;" horiz-adv-x="833" d="M113 117q0 57 35 91t94 34q61 0 98 -41t37 -109q0 -133 -125 -266h-82v8q63 90 63 166q-55 0 -87.5 34t-32.5 83zM457 117q0 57 33.5 91t95 34t98.5 -42t37 -108q0 -133 -125 -266h-84v8q63 84 63 166q-55 0 -86.5 34t-31.5 83z" />
<glyph unicode="&#x2022;" horiz-adv-x="536" d="M115 653.5q0 65.5 44 110.5t109.5 45t109.5 -45t44 -111q0 -63 -44 -107t-109.5 -44t-109.5 43t-44 108.5z" />
<glyph unicode="&#x2026;" horiz-adv-x="1566" d="M115 127q0 61 35.5 99t101 38t102.5 -38t37 -99q0 -63 -37 -101t-102.5 -38t-101 37.5t-35.5 101.5zM645 127q0 61 37 99t102.5 38t102.5 -38t37 -99q0 -63 -37 -101t-102.5 -38t-102.5 37.5t-37 101.5zM1176 127q0 61 36.5 99t102 38t101.5 -38t36 -99q0 -63 -36 -101 t-101.5 -38t-102 37.5t-36.5 101.5z" />
<glyph unicode="&#x202f;" horiz-adv-x="383" />
<glyph unicode="&#x2039;" horiz-adv-x="608" d="M115 567l227 426h152l-197 -426l197 -426h-152z" />
<glyph unicode="&#x203a;" horiz-adv-x="608" d="M115 141l196 426l-196 426h151l228 -426l-228 -426h-151z" />
<glyph unicode="&#x205f;" horiz-adv-x="479" />
<glyph unicode="&#x20ac;" horiz-adv-x="1609" d="M115 514v129h184q-2 59 4 168h-188v129h209q59 225 219 371.5t383 146.5q199 0 335 -108.5t195 -257.5l-119 -119h-8q-49 150 -152.5 245t-250.5 95q-160 0 -272.5 -104.5t-159.5 -268.5h555v-129h-580q-12 -84 -4 -168h584v-129h-566q41 -186 155 -285.5t288 -99.5 q176 0 284.5 109.5t143.5 289.5h6l135 -112q-53 -195 -197.5 -318t-371.5 -123q-244 0 -405 138.5t-206 400.5h-200z" />
<glyph unicode="&#x2122;" horiz-adv-x="1734" d="M74 1321v113h540v-113h-204v-643h-125v643h-211zM729 678v756h209l186 -625h4l187 625h209v-756h-121v643h-4l-193 -643h-159l-193 643h-4v-643h-121z" />
<glyph unicode="&#x25fc;" horiz-adv-x="1146" d="M0 0v1147h1147v-1147h-1147z" />
<glyph unicode="&#xfb03;" horiz-adv-x="1841" d="M33 1008v139h211v215q0 119 66.5 182.5t168.5 63.5q76 0 144.5 -31t105.5 -68l-47 -147h-8q-25 33 -73 62.5t-101 29.5q-102 0 -103 -113v-194h238v-139h-238v-1008h-153v1008h-211zM735 1008v139h205v237q0 102 64.5 163t164.5 61q115 0 195 -68l-33 -145h-6 q-55 59 -135 59q-96 0 -96 -100v-207h258v-139h-258v-1008h-154v1008h-205zM1489 1405q0 57 32 90t91 33q57 0 89 -34t32 -89t-32 -88t-89 -33q-59 0 -91 33t-32 88zM1534 0v1147h154v-1147h-154z" />
<glyph unicode="&#xfb04;" horiz-adv-x="1841" d="M33 1008v139h211v215q0 119 66.5 182.5t168.5 63.5q76 0 144.5 -31t105.5 -68l-47 -147h-8q-25 33 -73 62.5t-101 29.5q-102 0 -103 -113v-194h238v-139h-238v-1008h-153v1008h-211zM735 1008v139h205v237q0 102 64.5 163t164.5 61q115 0 195 -68l-33 -145h-6 q-55 59 -135 59q-96 0 -96 -100v-207h258v-139h-258v-1008h-154v1008h-205zM1532 0v1520h154v-1520h-154z" />
</font>
</defs>
</svg>
